<svg width="1920" height="1280" viewBox="0 0 1920 1280" fill="none" xmlns="http://www.w3.org/2000/svg">
<rect width="1920" height="1280" fill="white"/>
<line x1="595" y1="854.5" x2="1124" y2="854.5" stroke="#858585"/>
<path d="M601.44 830V803.32H598.12V830H601.44ZM623.61 830V816.44C623.61 812.24 621.49 810.2 617.49 810.2C614.57 810.2 611.93 811.84 610.57 813.48V810.68H607.57V830H610.57V815.88C611.73 814.32 613.93 812.88 616.29 812.88C618.89 812.88 620.65 813.92 620.65 817.36V830H623.61ZM635.801 830.48C640.761 830.48 643.361 827.88 643.361 824.64C643.361 817.12 631.401 819.88 631.401 815.68C631.401 813.96 633.041 812.64 635.681 812.64C638.201 812.64 640.281 813.68 641.441 815.08L642.841 813C641.321 811.44 639.001 810.2 635.681 810.2C631.081 810.2 628.521 812.72 628.521 815.76C628.521 822.92 640.481 820.04 640.481 824.72C640.481 826.64 638.841 828.04 635.881 828.04C633.241 828.04 630.801 826.76 629.521 825.28L628.001 827.44C629.961 829.48 632.601 830.48 635.801 830.48ZM656.994 830.48C660.114 830.48 662.714 829.4 664.674 827.48L663.234 825.52C661.674 827.12 659.474 828 657.234 828C653.074 828 650.554 824.96 650.314 821.32H665.914V820.56C665.914 814.76 662.474 810.2 656.634 810.2C651.114 810.2 647.114 814.72 647.114 820.32C647.114 826.36 651.234 830.48 656.994 830.48ZM662.954 819.08H650.274C650.434 816.16 652.474 812.68 656.594 812.68C660.994 812.68 662.914 816.24 662.954 819.08ZM673.773 830V816.32C674.653 814.76 677.173 813.24 679.053 813.24C679.493 813.24 679.853 813.28 680.213 813.32V810.24C677.573 810.24 675.333 811.76 673.773 813.76V810.68H670.773V830H673.773ZM688.897 830.48C690.617 830.48 691.697 829.96 692.457 829.24L691.577 826.96C691.177 827.4 690.417 827.8 689.537 827.8C688.257 827.8 687.617 826.76 687.617 825.32V813.32H691.537V810.68H687.617V805.4H684.577V810.68H681.377V813.32H684.577V825.96C684.577 828.84 686.017 830.48 688.897 830.48ZM711.006 830.48C712.726 830.48 713.806 829.96 714.566 829.24L713.686 826.96C713.286 827.4 712.526 827.8 711.646 827.8C710.366 827.8 709.726 826.76 709.726 825.32V813.32H713.646V810.68H709.726V805.4H706.686V810.68H703.486V813.32H706.686V825.96C706.686 828.84 708.126 830.48 711.006 830.48ZM726.604 830.48C729.724 830.48 732.324 829.4 734.284 827.48L732.844 825.52C731.284 827.12 729.084 828 726.844 828C722.684 828 720.164 824.96 719.924 821.32H735.524V820.56C735.524 814.76 732.084 810.2 726.244 810.2C720.724 810.2 716.724 814.72 716.724 820.32C716.724 826.36 720.844 830.48 726.604 830.48ZM732.564 819.08H719.884C720.044 816.16 722.084 812.68 726.204 812.68C730.604 812.68 732.524 816.24 732.564 819.08ZM756.383 830L748.943 820.08L755.943 810.68H752.503L747.103 818.04L741.743 810.68H738.263L745.263 820.08L737.863 830H741.303L747.103 822.08L752.943 830H756.383ZM764.795 830.48C766.515 830.48 767.595 829.96 768.355 829.24L767.475 826.96C767.075 827.4 766.315 827.8 765.435 827.8C764.155 827.8 763.515 826.76 763.515 825.32V813.32H767.435V810.68H763.515V805.4H760.475V810.68H757.275V813.32H760.475V825.96C760.475 828.84 761.915 830.48 764.795 830.48ZM798.064 830V816.36C798.064 812.16 795.944 810.2 791.904 810.2C788.984 810.2 786.344 811.84 785.024 813.48V803.32H782.024V830H785.024V815.88C786.144 814.32 788.384 812.88 790.704 812.88C793.344 812.88 795.064 813.84 795.064 817.28V830H798.064ZM812.815 830.48C815.935 830.48 818.535 829.4 820.495 827.48L819.055 825.52C817.495 827.12 815.295 828 813.055 828C808.895 828 806.375 824.96 806.135 821.32H821.735V820.56C821.735 814.76 818.295 810.2 812.455 810.2C806.935 810.2 802.935 814.72 802.935 820.32C802.935 826.36 807.055 830.48 812.815 830.48ZM818.775 819.08H806.095C806.255 816.16 808.295 812.68 812.415 812.68C816.815 812.68 818.735 816.24 818.775 819.08ZM829.594 830V816.32C830.474 814.76 832.994 813.24 834.874 813.24C835.314 813.24 835.674 813.28 836.034 813.32V810.24C833.394 810.24 831.154 811.76 829.594 813.76V810.68H826.594V830H829.594ZM848.557 830.48C851.677 830.48 854.277 829.4 856.237 827.48L854.797 825.52C853.237 827.12 851.037 828 848.797 828C844.637 828 842.117 824.96 841.877 821.32H857.477V820.56C857.477 814.76 854.037 810.2 848.197 810.2C842.677 810.2 838.677 814.72 838.677 820.32C838.677 826.36 842.797 830.48 848.557 830.48ZM854.517 819.08H841.837C841.997 816.16 844.037 812.68 848.157 812.68C852.557 812.68 854.477 816.24 854.517 819.08Z" fill="#858585"/>
<g filter="url(#filter0_d_14_62)">
<mask id="path-3-outside-1_14_62" maskUnits="userSpaceOnUse" x="1160" y="799" width="146" height="57" fill="black">
<rect fill="white" x="1160" y="799" width="146" height="57"/>
<path d="M1162 821C1162 809.954 1170.95 801 1182 801H1284C1295.05 801 1304 809.954 1304 821V832C1304 843.046 1295.05 852 1284 852H1182C1170.95 852 1162 843.046 1162 832V821Z"/>
</mask>
<path d="M1162 821C1162 809.954 1170.95 801 1182 801H1284C1295.05 801 1304 809.954 1304 821V832C1304 843.046 1295.05 852 1284 852H1182C1170.95 852 1162 843.046 1162 832V821Z" fill="#85DFFF"/>
<path d="M1160 821C1160 808.85 1169.85 799 1182 799H1284C1296.15 799 1306 808.85 1306 821H1302C1302 811.059 1293.94 803 1284 803H1182C1172.06 803 1164 811.059 1164 821H1160ZM1306 834C1306 846.15 1296.15 856 1284 856H1182C1169.85 856 1160 846.15 1160 834L1164 832C1164 840.837 1172.06 848 1182 848H1284C1293.94 848 1302 840.837 1302 832L1306 834ZM1182 856C1169.85 856 1160 846.15 1160 834V821C1160 808.85 1169.85 799 1182 799V803C1172.06 803 1164 811.059 1164 821V832C1164 840.837 1172.06 848 1182 848V856ZM1284 799C1296.15 799 1306 808.85 1306 821V834C1306 846.15 1296.15 856 1284 856V848C1293.94 848 1302 840.837 1302 832V821C1302 811.059 1293.94 803 1284 803V799Z" fill="#85DFFF" mask="url(#path-3-outside-1_14_62)"/>
</g>
<path d="M1195.87 836.36C1199.59 836.36 1201.54 834.41 1201.54 831.98C1201.54 826.34 1192.57 828.41 1192.57 825.26C1192.57 823.97 1193.8 822.98 1195.78 822.98C1197.67 822.98 1199.23 823.76 1200.1 824.81L1201.15 823.25C1200.01 822.08 1198.27 821.15 1195.78 821.15C1192.33 821.15 1190.41 823.04 1190.41 825.32C1190.41 830.69 1199.38 828.53 1199.38 832.04C1199.38 833.48 1198.15 834.53 1195.93 834.53C1193.95 834.53 1192.12 833.57 1191.16 832.46L1190.02 834.08C1191.49 835.61 1193.47 836.36 1195.87 836.36ZM1217.23 836V821.51H1214.98V832.16C1214.14 833.33 1212.46 834.35 1210.72 834.35C1208.74 834.35 1207.45 833.6 1207.45 831.05V821.51H1205.2V831.74C1205.2 834.86 1206.79 836.36 1209.82 836.36C1211.98 836.36 1213.87 835.22 1214.98 833.96V836H1217.23ZM1223.97 832.07V825.5C1224.75 824.24 1226.52 823.16 1228.32 823.16C1231.23 823.16 1232.97 825.56 1232.97 828.77C1232.97 831.98 1231.23 834.35 1228.32 834.35C1226.52 834.35 1224.75 833.33 1223.97 832.07ZM1223.97 836V833.84C1225.05 835.31 1226.82 836.36 1228.86 836.36C1232.64 836.36 1235.31 833.48 1235.31 828.77C1235.31 824.12 1232.67 821.15 1228.86 821.15C1226.91 821.15 1225.14 822.11 1223.97 823.7V815.99H1221.72V836H1223.97ZM1258.71 836V825.53C1258.71 822.62 1257.3 821.15 1254.66 821.15C1252.56 821.15 1250.61 822.53 1249.8 823.85C1249.38 822.35 1248.12 821.15 1245.93 821.15C1243.77 821.15 1241.85 822.68 1241.22 823.61V821.51H1238.97V836H1241.22V825.41C1242 824.24 1243.56 823.16 1245.03 823.16C1246.95 823.16 1247.7 824.33 1247.7 826.16V836H1249.95V825.38C1250.7 824.21 1252.29 823.16 1253.79 823.16C1255.68 823.16 1256.46 824.33 1256.46 826.16V836H1258.71ZM1264.34 819.44C1265.18 819.44 1265.84 818.78 1265.84 817.94C1265.84 817.1 1265.18 816.41 1264.34 816.41C1263.5 816.41 1262.81 817.1 1262.81 817.94C1262.81 818.78 1263.5 819.44 1264.34 819.44ZM1265.45 836V821.51H1263.2V836H1265.45ZM1273.63 836.36C1274.92 836.36 1275.73 835.97 1276.3 835.43L1275.64 833.72C1275.34 834.05 1274.77 834.35 1274.11 834.35C1273.15 834.35 1272.67 833.57 1272.67 832.49V823.49H1275.61V821.51H1272.67V817.55H1270.39V821.51H1267.99V823.49H1270.39V832.97C1270.39 835.13 1271.47 836.36 1273.63 836.36Z" fill="#54595F"/>
<path d="M399.992 534.129C399.037 535.282 397.918 536.288 396.672 537.117C395.354 538.106 394.189 539.284 393.215 540.613C392.59 541.473 393.762 541.863 394.406 541.883C394.96 541.912 395.513 541.818 396.026 541.609C396.539 541.399 397 541.08 397.375 540.672C399.328 538.113 402.16 536.766 404.094 534.187C404.758 533.348 403.547 532.957 402.902 532.938C402.351 532.915 401.802 533.01 401.29 533.215C400.779 533.421 400.316 533.732 399.934 534.129H399.992Z" fill="#231F20"/>
<path d="M407.258 493.426C405.09 496.219 402.355 498.504 399.973 501.121C399.27 501.883 400.578 502.02 401.086 502C402.196 501.978 403.262 501.563 404.094 500.828C406.477 498.211 409.23 495.926 411.379 493.133C412.004 492.332 410.852 492.215 410.285 492.234C409.172 492.234 408.097 492.637 407.258 493.367V493.426Z" fill="#231F20"/>
<path d="M404.152 515.223C402.425 517.091 400.579 518.846 398.625 520.477C397.941 521.102 399.23 521.258 399.602 521.258C400.542 521.249 401.454 520.934 402.199 520.359C404.171 518.736 406.031 516.98 407.766 515.105C408.352 514.441 407.258 514.324 406.789 514.344C405.819 514.331 404.88 514.679 404.152 515.32V515.223Z" fill="#231F20"/>
<path d="M567.668 353.641C567.724 353.256 567.863 352.888 568.074 352.562C568.286 352.237 568.565 351.96 568.894 351.752C569.222 351.545 569.592 351.41 569.977 351.359C570.362 351.307 570.754 351.339 571.125 351.453C578.313 354.148 565.305 362.781 567.668 353.641Z" stroke="#231F20" stroke-width="1.25" stroke-miterlimit="10"/>
<path d="M576.633 380.574C576.687 380.229 576.815 379.9 577.008 379.609C577.201 379.317 577.454 379.071 577.75 378.886C578.046 378.7 578.379 378.581 578.725 378.535C579.072 378.49 579.424 378.519 579.758 378.621C586.301 381.023 574.504 388.836 576.633 380.574Z" stroke="#231F20" stroke-width="1.1" stroke-miterlimit="10"/>
<path d="M480.227 362.039C480.284 361.695 480.414 361.368 480.608 361.078C480.801 360.789 481.054 360.544 481.349 360.359C481.645 360.174 481.976 360.055 482.321 360.007C482.666 359.96 483.018 359.987 483.352 360.086C489.895 362.488 478.098 370.301 480.227 362.039Z" stroke="#231F20" stroke-width="1.1" stroke-miterlimit="10"/>
<path d="M532.609 393.406C532.666 393.021 532.805 392.653 533.016 392.327C533.227 392 533.506 391.723 533.834 391.514C534.162 391.305 534.531 391.168 534.916 391.114C535.301 391.06 535.694 391.089 536.066 391.199C543.312 393.816 530.246 402.469 532.609 393.406Z" fill="#231F20"/>
<path d="M531.437 553.309C520.148 553.914 508.84 554.129 497.551 554.031C493.43 554.031 489.309 554.031 485.188 553.836C470.676 553.309 456.184 552.215 441.789 550.477C435.383 549.773 428.957 548.855 422.668 547.82C414.562 546.473 406.457 544.949 398.488 542.996C393.527 541.785 400.227 541.473 409.484 543.25C417.687 544.832 425.891 546.258 434.152 547.371C442.414 548.484 450.773 549.324 459.152 550.066C469.172 550.965 479.66 551.297 489.953 551.473C501.281 551.688 512.609 551.473 523.938 551.063C530.891 550.789 537.863 550.301 544.797 549.715C555.305 548.738 565.852 547.41 576.047 545.437L577.883 545.086H578C579.702 544.711 581.314 544.008 582.746 543.016C584.312 542.064 585.825 541.027 587.277 539.91C590.227 537.723 593.137 535.359 595.852 532.918C597.18 531.766 598.43 530.574 599.758 529.383C604.602 524.93 606.125 523.523 607.57 523.035C607.905 522.899 608.252 522.795 608.605 522.723C609.484 522.723 608.059 525.066 604.582 528.582C600.869 532.325 596.957 535.865 592.863 539.188C590.773 540.887 588.605 542.527 586.301 544.07C585.168 544.832 583.957 545.574 582.687 546.258C582.061 546.62 581.408 546.933 580.734 547.195C579.931 547.538 579.083 547.762 578.215 547.859H578.469C574.211 548.66 569.875 549.461 565.52 550.066C554.23 551.746 542.824 552.781 531.437 553.465V553.309Z" fill="#231F20"/>
<path d="M522.98 432.723C511.086 431.98 499.406 430.34 487.824 428.543C483.566 427.879 479.309 427.273 475.09 426.59C467.629 425.262 460.188 423.816 452.785 422.352L451.789 422.156C451.633 422.156 451.398 422 451.301 422.156L449.934 423.777L446.262 428.113L438.859 436.707L425.598 452C422.785 455.223 419.895 458.406 416.906 461.512C415.383 463.055 413.859 464.578 412.238 466.023C410.634 467.521 408.865 468.832 406.965 469.93C405.598 470.613 404.875 470.633 404.855 470.379C404.836 470.125 405.324 469.461 406.008 468.602C408.045 465.471 410.359 462.53 412.922 459.812C424.641 447.117 436.086 433.934 447.609 420.75L448.391 419.813C448.586 419.598 448.762 419.363 448.957 419.168L449.582 418.719L449.895 418.484C449.895 418.484 450.07 418.914 449.895 418.699H450.051H450.227C450.469 418.627 450.717 418.574 450.969 418.543C451.506 418.572 452.041 418.637 452.57 418.738L456.477 419.5L464.387 420.945L480.363 423.621C492.082 425.574 503.703 427.254 515.52 428.328C522.76 428.981 530.038 429.111 537.297 428.719C548.293 428.328 559.348 427.684 570.227 426.551C578.703 425.73 586.926 424.402 595.305 423.406C597.141 423.172 598.957 422.938 600.832 422.742C603.301 422.449 605.792 422.384 608.273 422.547C609.454 422.647 610.596 423.014 611.613 423.621C611.951 423.8 612.271 424.009 612.57 424.246C612.883 424.578 612.316 424.852 611.086 425.145C609.241 425.596 607.368 425.929 605.48 426.141C598.098 427.059 590.48 428.406 582.668 429.305C574.855 430.203 566.926 431.062 558.957 431.687C553.098 432.156 547.082 432.469 541.125 432.742C538.137 432.742 535.266 432.977 532.16 433.016C529.055 433.055 526.086 433.016 523.078 432.82L522.98 432.723Z" fill="#231F20"/>
<path d="M508 492.371C499.133 492.371 490.285 492.059 481.457 491.395C478.234 491.102 474.992 491.121 471.691 490.691C460.353 489.512 449.109 487.555 438.039 484.832C433.156 483.582 428.273 482.273 423.469 481.199C417.307 479.908 411.081 478.949 404.816 478.328C402.863 478.133 403.098 477.215 404.816 476.375C407.567 475.103 410.619 474.629 413.625 475.008C420.225 475.971 426.751 477.387 433.156 479.246C436.32 480.086 439.426 480.965 442.57 481.687L452.062 483.875C455.969 484.598 459.875 485.184 463.781 485.691L475.773 486.785C484.543 487.41 493.352 487.898 502.16 487.898C507.59 487.898 513.02 487.898 518.449 487.723C526.672 487.371 534.934 487.02 543.059 486.121C549.367 485.496 555.52 484.383 561.711 483.465C563.078 483.25 564.387 482.996 565.773 482.801C570.852 481.98 572.551 482.215 573.801 483.055C574.105 483.225 574.398 483.415 574.68 483.621C575.383 484.305 573.312 485.574 569.641 486.492C563.999 487.881 558.288 488.969 552.531 489.754C546.672 490.535 540.812 491.121 534.738 491.531C525.871 492.234 516.906 492.43 507.98 492.586L508 492.371Z" fill="#231F20"/>
<path d="M603.039 461.766C601.359 463.875 599.641 465.965 597.844 468.016C597.18 468.758 596.613 469.598 595.891 470.301C593.416 472.797 590.808 475.157 588.078 477.371C586.887 478.387 585.812 479.324 584.602 480.457C583.648 481.118 582.572 481.582 581.437 481.824L578.957 482.43C578.645 482.43 577.961 482 578 480.945C578.102 480.344 578.368 479.782 578.767 479.32C579.167 478.859 579.685 478.516 580.266 478.328C580.993 478.12 581.699 477.846 582.375 477.508L582.531 477.742L582.687 477.957L582.18 477.371L582.453 477.117L583 476.609L584.113 475.672C585.617 474.441 587.121 473.211 588.684 472.02C590.476 470.452 592.123 468.726 593.605 466.863C595.324 464.91 596.984 462.82 598.625 460.711L601.574 456.805C603.078 454.852 604.641 452.898 606.027 450.77C607.121 449.187 607.98 447.469 609.055 445.887C609.289 445.555 609.504 445.184 609.758 444.852C610.754 443.621 611.379 443.465 612.102 443.562C612.264 443.542 612.428 443.542 612.59 443.562C613.059 443.699 613.059 444.5 612.746 445.672C611.438 448.986 609.74 452.134 607.687 455.047C606.223 457.293 604.699 459.52 603.039 461.668V461.766Z" fill="#231F20"/>
<path d="M535.949 511.512C524.406 512.547 512.805 513.133 501.223 513.289C496.984 513.289 492.766 513.465 488.547 513.289C481.086 513.152 473.645 512.703 466.223 512.117C458.801 511.531 451.359 510.594 444.055 509.695C437.531 508.875 430.949 508.074 424.523 507.137C420.363 506.531 416.184 505.887 412.043 505.066C407.898 504.241 403.808 503.158 399.797 501.824C397.297 501.004 397.844 500.535 400.109 500.418C403.841 500.309 407.575 500.551 411.262 501.141C419.602 502.723 428.02 503.895 436.496 505.047C444.973 506.199 453.488 507.293 462.004 508.23C472.448 509.228 482.939 509.665 493.43 509.539C504.992 509.539 516.548 509.077 528.098 508.152C535.207 507.625 542.297 506.844 549.367 505.965C554.719 505.281 560.07 504.559 565.422 503.719L573.391 502.391L577.297 501.668L579.25 501.297L580.246 501.102H580.734H581.027C582.823 500.106 584.529 498.956 586.125 497.664C587.707 496.414 589.27 495.105 590.754 493.758C593.762 491.004 596.613 488.113 599.406 485.105C600.617 483.797 601.77 482.469 602.98 481.102C607.414 476.043 608.84 474.441 610.383 473.797C610.716 473.626 611.062 473.482 611.418 473.367C612.316 473.191 611.184 475.848 608.195 479.91C603.623 486.08 598.504 491.825 592.902 497.078C589.905 499.906 586.566 502.347 582.961 504.344L582.355 504.656L581.672 504.793L580.93 504.93L579.484 505.223L576.613 505.789C574.66 506.18 572.707 506.531 570.754 506.883C559.27 508.973 547.648 510.574 535.988 511.648L535.949 511.512Z" fill="#231F20"/>
<path d="M604.23 509.813C602.961 510.945 601.691 512.059 600.324 513.152C599.855 513.563 599.445 514.031 598.977 514.422C597.277 515.789 595.5 517.078 593.742 518.328C592.961 518.895 592.199 519.52 591.457 520.125H591.34C590.984 520.403 590.57 520.596 590.129 520.691C589.758 520.691 589.445 520.809 589.133 520.848C588.639 520.89 588.142 520.89 587.648 520.848C587.454 520.685 587.302 520.477 587.206 520.242C587.111 520.007 587.075 519.752 587.102 519.5C587.191 519.094 587.386 518.72 587.667 518.414C587.949 518.109 588.306 517.884 588.703 517.762C588.953 517.724 589.201 517.672 589.445 517.605C589.621 517.605 589.445 517.605 589.563 517.605C590.871 516.59 592.414 515.535 593.957 514.559C595.183 513.68 596.332 512.7 597.395 511.629C598.625 510.516 599.875 509.402 601.086 508.27C601.848 507.566 602.59 506.844 603.313 506.121C604.406 505.008 605.539 503.914 606.535 502.742C607.276 501.8 607.961 500.815 608.586 499.793C608.742 499.578 608.859 499.344 609.016 499.129C609.092 498.972 609.201 498.833 609.336 498.722C609.471 498.611 609.628 498.531 609.797 498.486C609.965 498.442 610.142 498.434 610.314 498.464C610.486 498.494 610.649 498.561 610.793 498.66L611.281 498.875C611.529 499.068 611.704 499.34 611.775 499.646C611.846 499.951 611.81 500.272 611.672 500.555C610.659 502.591 609.342 504.462 607.766 506.102C606.652 507.371 605.402 508.543 604.191 509.734L604.23 509.813Z" fill="#231F20"/>
<path d="M510.715 533.914C501.014 534.461 491.294 534.728 481.555 534.715C478 534.715 474.465 534.715 470.91 534.715C467.785 534.715 464.66 534.48 461.535 534.305C458.41 534.129 455.285 533.895 452.18 533.621C445.93 533.094 439.719 532.215 433.566 531.473C428.098 530.789 422.57 530.32 417.082 529.656C409.967 528.995 402.975 527.365 396.301 524.812C394.23 523.992 394.797 523.328 396.809 523.113C399.944 522.959 403.087 523.242 406.145 523.953C412.98 525.418 420.012 526.219 427.18 527.039C434.348 527.859 441.535 528.875 448.664 529.793C457.425 530.67 466.226 531.094 475.031 531.062C484.732 531.141 494.452 530.945 504.191 530.477C510.168 530.164 516.145 529.793 522.121 529.305C531.145 528.543 540.227 527.723 549.152 526.531C556.105 525.613 562.824 524.402 569.68 523.191L574.152 522.371C579.777 521.395 581.613 521.512 582.98 522.254C583.303 522.384 583.61 522.548 583.898 522.742C584.211 523.035 583.898 523.406 582.863 523.875C581.395 524.547 579.855 525.052 578.273 525.379C565.655 528.087 552.903 530.134 540.07 531.512C530.305 532.684 520.539 533.465 510.773 534.051L510.715 533.914Z" fill="#231F20"/>
<path d="M480.656 520.164C474.797 519.93 468.762 519.598 462.844 519.129C460.676 518.953 458.508 518.836 456.359 518.621C448.723 517.859 441.203 516.668 433.645 515.77L423.566 514.656C419.227 514.298 414.935 513.506 410.754 512.293C408.176 511.473 412.023 510.223 416.809 510.926C425.363 512.234 434.152 513.016 442.941 514.383C448.195 515.223 453.645 515.711 459.035 516.141C464.895 516.629 470.91 517 476.848 517.234C480.5 517.391 484.172 517.488 487.844 517.508C493.391 517.508 498.957 517.508 504.465 517.332C508.742 517.156 512.922 516.766 517.141 516.375L519.914 516.102C523.371 515.789 524.504 516.102 525.305 516.629C525.498 516.741 525.676 516.879 525.832 517.039C526.203 517.469 524.836 518.133 522.297 518.543C514.462 519.611 506.57 520.205 498.664 520.32C492.687 520.477 486.652 520.32 480.656 520.32V520.164Z" fill="#231F20"/>
<path d="M531.574 549.656C519.953 550.398 508.332 550.77 496.691 550.887C492.453 550.887 488.195 551.023 483.957 550.887C469.016 550.574 454.055 549.812 439.191 548.113C432.59 547.332 426.027 546.551 419.484 545.984C411.017 545.407 402.602 544.213 394.309 542.41C391.73 541.785 392.219 541.277 394.523 541.141C398.258 541.031 401.995 541.233 405.695 541.746C414.172 542.84 422.746 543.426 431.359 544.422C439.973 545.418 448.449 546.375 457.102 546.941C467.434 547.703 478.215 547.781 488.82 547.762C500.539 547.762 512.193 547.436 523.781 546.785C530.949 546.395 538.117 545.848 545.266 545.164C556.086 544.109 566.926 542.781 577.512 540.789L581.223 540.066H581.379C582.935 539.696 584.406 539.033 585.715 538.113C587.176 537.195 588.591 536.204 589.953 535.145C592.707 533.035 595.344 530.77 597.961 528.445L601.867 524.754C606.809 520.125 608.391 518.699 610.129 518.328C610.504 518.213 610.89 518.134 611.281 518.094C612.297 518.094 610.91 520.691 607.375 524.344C603.811 528.06 600.042 531.575 596.086 534.871C594.133 536.551 591.984 538.191 589.719 539.715C588.567 540.499 587.366 541.21 586.125 541.844C585.498 542.209 584.845 542.529 584.172 542.801C583.327 543.141 582.44 543.365 581.535 543.465H581.867L574.328 544.852L566.691 546.043C554.973 547.742 543.254 548.855 531.535 549.656H531.574Z" fill="#231F20"/>
<path d="M482.102 499.812C481.906 503.641 481.743 507.475 481.613 511.316C481.613 512.723 481.613 514.129 481.613 515.535L480.793 530.398C480.656 532.586 480.656 534.812 480.598 537C480.732 539.868 480.429 542.739 479.699 545.516C479.406 546.414 478.664 546.082 477.98 545.223C477.597 544.737 477.288 544.197 477.062 543.621C476.762 542.945 476.609 542.213 476.613 541.473C476.789 535.906 476.906 530.203 477.414 524.461C477.727 521.043 477.414 517.449 477.551 513.934L477.863 502.215L478.156 495.027C478.156 493.211 478.352 491.395 478.547 489.52C478.717 488.492 479.047 487.497 479.523 486.57C479.914 485.711 480.344 484.871 480.773 484.07C482.082 481.531 483.41 479.09 484.875 476.707C485.207 476.199 485.539 475.691 485.91 475.203C487.297 473.367 488.059 473.016 489.016 473.113C489.23 473.103 489.445 473.103 489.66 473.113C490.246 473.289 490.207 474.422 489.523 475.945C488.566 478.25 487.395 480.457 486.223 482.664C485.051 484.871 483.762 487.098 483 489.09C482.91 489.313 482.831 489.541 482.766 489.773L482.609 491.258L482.414 494.051C482.414 496.004 482.238 497.957 482.18 499.91L482.102 499.812Z" fill="#231F20"/>
<path d="M527.531 496.922C523.898 497.039 520.285 497.117 516.652 497.156C515.344 497.156 514.016 497.273 512.746 497.273C508.098 497.273 503.449 497.137 498.781 497.02C496.73 497.02 494.641 497.02 492.609 497.02C490 497.112 487.387 496.995 484.797 496.668C483.176 496.453 485.344 494.539 488.352 494.441C493.684 494.441 499.016 494.676 504.406 494.949C507.629 495.086 510.988 494.949 514.289 494.832C517.922 494.832 521.535 494.676 525.168 494.52L531.867 494.207C535.246 493.992 538.645 493.797 541.984 493.445C544.582 493.191 547.102 492.703 549.66 492.371L551.34 492.137C553.449 491.863 554.152 492.137 554.68 492.625C554.808 492.745 554.925 492.876 555.031 493.016C555.285 493.445 554.465 493.953 552.941 494.383C548.238 495.43 543.456 496.084 538.645 496.336C535.012 496.629 531.34 496.805 527.688 496.98L527.531 496.922Z" fill="#231F20"/>
<path d="M447.98 493.289C445.012 492.762 442.004 492.098 439.113 491.336C438.059 491.043 436.984 490.848 435.93 490.535C432.238 489.48 428.566 488.328 424.895 487.332C423.254 486.883 421.594 486.512 419.953 486.199C417.816 485.906 415.697 485.495 413.605 484.969C412.297 484.637 414.25 482.859 416.809 483.016C421.247 483.756 425.617 484.86 429.875 486.316C432.414 487.156 435.129 487.742 437.688 488.426C440.246 489.109 443.449 489.891 446.398 490.379C448.195 490.691 450.012 490.984 451.828 491.219C454.602 491.609 457.395 491.98 460.168 492.254C462.316 492.488 464.445 492.547 466.594 492.859L468 493.035C469.777 493.348 470.266 493.797 470.5 494.441C470.569 494.591 470.622 494.749 470.656 494.91C470.656 495.379 469.914 495.633 468.703 495.633C464.934 495.496 460.891 495.086 456.984 494.578C454.016 494.227 451.008 493.816 448 493.328L447.98 493.289Z" fill="#231F20"/>
<path d="M473.43 451.844C473.345 449.798 473.832 447.769 474.836 445.984C475.917 444.101 477.678 442.703 479.758 442.078C481.238 441.605 482.822 441.557 484.328 441.941C485.001 442.152 485.654 442.42 486.281 442.742C486.857 443.094 487.388 443.514 487.863 443.992C488.738 444.861 489.441 445.889 489.934 447.02C490.803 449.036 491.407 451.156 491.73 453.328L492.707 458.738C493.117 461.023 493.625 463.23 493.977 465.379C494.094 466.043 493.41 466.277 492.512 465.945C491.931 465.712 491.409 465.353 490.983 464.893C490.558 464.434 490.239 463.886 490.051 463.289C489.385 460.983 488.843 458.642 488.43 456.277C488.133 454.072 487.703 451.887 487.141 449.734C486.84 448.59 486.232 447.55 485.383 446.727C484.593 446.057 483.604 445.666 482.57 445.613C481.363 445.576 480.186 445.992 479.271 446.781C478.356 447.569 477.77 448.672 477.629 449.871C477.381 451.595 477.535 453.353 478.078 455.008C478.964 457.607 480.742 459.808 483.098 461.219C484.991 462.275 487.042 463.02 489.172 463.426C489.621 463.543 490.109 463.582 490.578 463.699C492.316 464.07 492.805 464.461 493 465.652C493 465.926 493 466.18 493.117 466.434C493.117 467.273 492.238 467.84 490.773 467.762C486.023 467.492 481.515 465.58 478.02 462.352C476.62 460.984 475.488 459.368 474.68 457.586C473.935 455.791 473.506 453.882 473.41 451.941L473.43 451.844Z" fill="#231F20"/>
<path d="M520.48 456.18C521.023 455.419 521.525 454.63 521.984 453.816L522.59 452.527L522.883 451.883L523.039 451.316L523.215 450.75C523.215 450.594 523.215 450.457 523.215 450.301C523.215 450.145 523.215 449.773 523.215 449.539C523.044 449.072 522.702 448.688 522.258 448.465C521.103 447.979 519.858 447.746 518.605 447.781C517.364 447.724 516.119 447.802 514.895 448.016C514.307 448.124 513.727 448.268 513.156 448.445C512.6 448.664 512.064 448.932 511.555 449.246C509.159 450.601 506.844 452.095 504.621 453.719C502.657 455.152 500.827 456.76 499.152 458.523C498.108 459.628 497.148 460.809 496.281 462.059C495.448 463.182 494.741 464.394 494.172 465.672C493.82 466.414 492.902 466.297 492.219 465.184C491.817 464.392 491.634 463.507 491.689 462.622C491.744 461.736 492.035 460.88 492.531 460.145C496.554 454.521 501.856 449.936 508 446.766L510.676 445.262C511.752 444.711 512.894 444.297 514.074 444.031C516.266 443.506 518.532 443.361 520.773 443.602C522.146 443.742 523.475 444.16 524.68 444.832C525.357 445.224 525.964 445.726 526.477 446.316C526.981 446.962 527.34 447.708 527.531 448.504C527.86 449.909 527.786 451.378 527.316 452.742C526.935 453.897 526.479 455.026 525.949 456.121C524.555 458.712 522.671 461.007 520.402 462.879C516.949 465.547 512.947 467.415 508.684 468.348C505.46 469.2 502.135 469.614 498.801 469.578C498.059 469.578 497.336 469.578 496.574 469.441C493.781 468.992 493 468.172 492.922 466.805C492.893 466.499 492.893 466.192 492.922 465.887C493.078 464.91 494.309 464.5 495.988 464.617C501.193 465.077 506.435 464.411 511.359 462.664C514.959 461.412 518.124 459.155 520.48 456.16V456.18Z" fill="#231F20"/>
<path d="M490.988 467.059C494.218 471.504 496.097 476.787 496.398 482.273C496.516 483.641 501.066 482.703 500.93 481.062C500.557 475.414 498.571 469.991 495.207 465.437C494.289 464.285 489.934 465.848 490.988 467.156V467.059Z" fill="#231F20"/>
<path d="M493.859 464.344C487.395 460.613 481.32 468.25 477.336 472.312C477.144 472.516 477.008 472.765 476.94 473.036C476.872 473.307 476.874 473.591 476.946 473.862C477.019 474.132 477.159 474.379 477.354 474.579C477.548 474.78 477.791 474.927 478.059 475.008C478.724 475.223 479.437 475.242 480.113 475.061C480.788 474.881 481.397 474.51 481.867 473.992C483.156 472.645 484.387 471.219 485.773 469.949C486.477 469.324 488.801 466.98 489.68 467.527C490.287 467.869 490.982 468.023 491.677 467.971C492.372 467.919 493.036 467.663 493.586 467.234C494.406 466.57 495.051 465.047 493.84 464.344H493.859Z" fill="#231F20"/>
<path d="M509.699 438.758C508.879 439.734 508.078 440.75 507.297 441.805C507.004 442.176 506.809 442.625 506.516 442.996C505.441 444.324 504.328 445.652 503.254 446.902C502.785 447.488 502.395 448.133 501.945 448.738C501.484 449.594 500.891 450.372 500.188 451.043C499.953 451.238 499.563 450.926 499.25 450.398C499.074 450.149 498.951 449.866 498.887 449.567C498.823 449.268 498.82 448.96 498.879 448.66C499.562 446.839 500.583 445.162 501.887 443.719C502.606 442.748 503.258 441.73 503.84 440.672C504.562 439.578 505.344 438.484 506.145 437.391L507.629 435.437C508.371 434.422 509.211 433.484 509.973 432.488C510.734 431.492 510.969 430.828 511.496 430.008C511.604 429.829 511.736 429.664 511.887 429.52C511.981 429.397 512.1 429.295 512.236 429.221C512.372 429.147 512.522 429.102 512.677 429.089C512.831 429.076 512.987 429.095 513.133 429.146C513.28 429.197 513.414 429.277 513.527 429.383L513.996 429.656C514.232 429.827 514.408 430.069 514.5 430.346C514.591 430.623 514.592 430.921 514.504 431.199C514.339 432.065 514.015 432.893 513.547 433.641C513.137 434.383 512.688 435.086 512.219 435.809C511.555 436.863 510.656 437.762 509.934 438.836L509.699 438.758Z" fill="#231F20"/>
<path d="M535.93 552.098C529.68 552.098 523.41 552.215 517.121 552.098C514.836 552.098 512.551 552.098 510.266 551.824C502.371 551.093 494.434 550.923 486.516 551.316C482.98 551.453 479.445 551.746 475.91 551.922C471.307 552.388 466.659 552.117 462.141 551.121C460.734 550.711 461.066 550.262 462.336 549.969C464.259 549.528 466.223 549.292 468.195 549.266C472.668 549.266 477.199 548.582 481.867 548.152C486.535 547.723 491.145 547.762 495.891 547.82L504.465 547.937L513.059 548.27C519.27 548.504 525.5 548.484 531.75 548.27C535.656 548.152 539.504 547.99 543.293 547.781C549.152 547.449 555.012 547.293 560.754 546.785C565.148 546.283 569.506 545.501 573.801 544.441L576.594 543.738C577.863 543.371 579.179 543.193 580.5 543.211C581.247 543.306 581.938 543.658 582.453 544.207C582.685 544.383 582.907 544.572 583.117 544.773C583.371 545.066 583.117 545.418 582.629 546.082C581.875 546.896 580.896 547.467 579.816 547.723C571.715 550.134 563.326 551.442 554.875 551.609L536.027 552.273L535.93 552.098Z" fill="#231F20"/>
<path d="M606.281 525.086C606.281 525.086 626.848 520.789 622.805 526.648C616.145 536.297 592.883 552.801 548.176 551.121L584.621 542.957L606.281 525.086Z" fill="#231F20"/>
<path d="M885.012 365.223C885.056 364.881 885.175 364.552 885.359 364.261C885.544 363.97 885.79 363.722 886.08 363.536C886.37 363.35 886.698 363.23 887.04 363.184C887.382 363.138 887.729 363.167 888.059 363.27C894.406 365.672 882.941 373.27 885.012 365.223Z" stroke="#231F20" stroke-miterlimit="10"/>
<path d="M904.035 370.887C904.083 370.548 904.203 370.224 904.387 369.936C904.572 369.649 904.816 369.404 905.103 369.219C905.39 369.033 905.713 368.912 906.052 368.863C906.39 368.814 906.734 368.838 907.063 368.934C913.43 371.336 901.965 378.934 904.035 370.887Z" fill="#231F20"/>
<path d="M1034.17 546.063C1033.96 546.331 1033.7 546.55 1033.39 546.707C1033.09 546.863 1032.76 546.953 1032.42 546.97C1032.07 546.986 1031.73 546.93 1031.42 546.804C1031.1 546.677 1030.81 546.485 1030.58 546.238C1026.16 541.043 1039.89 540.086 1034.17 546.063Z" stroke="#231F20" stroke-miterlimit="10"/>
<path d="M1036.89 376.063C1037.11 376.315 1037.28 376.614 1037.39 376.938C1037.49 377.262 1037.53 377.604 1037.49 377.942C1037.45 378.28 1037.34 378.606 1037.16 378.898C1036.99 379.19 1036.76 379.442 1036.48 379.637C1030.66 383.113 1031.91 369.422 1036.89 376.063Z" stroke="#231F20" stroke-miterlimit="10"/>
<path d="M1012.06 537.078C1011.89 537.29 1011.68 537.463 1011.43 537.587C1011.19 537.711 1010.92 537.782 1010.65 537.797C1010.38 537.812 1010.11 537.769 1009.85 537.672C1009.6 537.576 1009.37 537.426 1009.17 537.234C1005.7 533.074 1016.59 532.313 1012.06 537.078Z" fill="#231F20"/>
<path d="M1024.89 383.523C1025.07 383.728 1025.21 383.969 1025.29 384.228C1025.37 384.488 1025.39 384.762 1025.36 385.032C1025.33 385.303 1025.24 385.564 1025.11 385.798C1024.97 386.033 1024.78 386.236 1024.56 386.395C1019.91 389.168 1020.91 378.211 1024.89 383.523Z" fill="#231F20"/>
<path d="M916.867 390.73C916.66 387.86 916.897 384.974 917.57 382.176C918.285 379.458 919.321 376.836 920.656 374.363C923.384 369.573 927.012 365.355 931.34 361.941C934.439 359.395 937.902 357.328 941.613 355.809C948.211 353.338 955.356 352.707 962.285 353.983C969.214 355.26 975.665 358.395 980.949 363.055C985.66 367.134 989.058 372.516 990.715 378.523C991.702 382.346 992.078 386.302 991.828 390.242C991.72 392.236 991.345 394.207 990.715 396.102C990.148 398.055 989.445 399.695 988.762 401.414C988.039 403.562 987.629 403.25 987.355 401.141C987.235 397.883 987.32 394.622 987.609 391.375C987.784 387.819 987.462 384.256 986.652 380.789C985.809 377.441 984.344 374.281 982.336 371.473C977.613 364.944 970.678 360.356 962.823 358.563C954.968 356.77 946.728 357.894 939.641 361.727C935.296 364.109 931.434 367.282 928.254 371.082C925.015 374.805 922.753 379.275 921.672 384.09C921.105 387.038 921.105 390.067 921.672 393.016C922.18 396.027 923.141 398.944 924.523 401.668C926.637 405.756 929.886 409.147 933.879 411.434C937.972 413.71 942.483 415.139 947.141 415.633C954.424 416.25 961.756 415.928 968.957 414.676C969.758 414.676 970.578 414.461 971.438 414.383C972.297 414.305 974.172 414.148 975.012 415.164C975.127 415.271 975.231 415.389 975.324 415.516C976.145 416.648 976.379 417.078 976.73 417.645C977.082 418.211 977.355 418.699 977.59 419.168C978.015 419.937 978.374 420.741 978.664 421.57C978.873 422.135 978.998 422.727 979.035 423.328C979.018 423.807 978.933 424.28 978.781 424.734C978.7 425.093 978.576 425.441 978.41 425.77C978 426.336 976.457 424.676 974.074 421.023L973.117 419.637L972.629 418.934C972.434 418.68 972.473 418.777 972.395 418.68C972.316 418.582 972.063 418.68 971.926 418.68L969.973 418.934L965.383 419.559C962.207 419.967 959.013 420.215 955.813 420.301C949.07 420.606 942.333 419.578 935.988 417.273C930.539 415.21 925.837 411.556 922.492 406.785C920.827 404.379 919.512 401.749 918.586 398.973C918.14 397.634 917.768 396.271 917.473 394.891C917.297 394.207 917.199 393.504 917.063 392.82L916.809 390.652L916.867 390.73Z" fill="#231F20"/>
<path d="M903.449 473.035C899.386 470.86 894.855 469.707 890.246 469.676C885.571 469.623 880.929 470.472 876.574 472.176C873.367 473.459 870.341 475.152 867.57 477.215C862.547 480.637 858.631 485.449 856.301 491.062C855.207 493.847 854.682 496.822 854.758 499.813C854.883 502.841 855.544 505.824 856.711 508.621C857.275 509.877 857.927 511.091 858.664 512.254C859.319 513.437 860.084 514.555 860.949 515.594C862.734 517.631 864.791 519.412 867.063 520.887C870.008 522.784 873.202 524.263 876.555 525.281C879.903 526.362 883.375 527.019 886.887 527.234C889.074 527.234 888.84 527.801 887.004 528.66C883.753 529.949 880.196 530.262 876.77 529.559C872.866 528.69 869.122 527.213 865.676 525.184C862.051 523.193 858.899 520.441 856.438 517.117C854.064 513.782 852.317 510.042 851.281 506.082C850.257 502.058 850.197 497.849 851.105 493.797C852.223 488.99 854.398 484.493 857.473 480.633C862.376 474.577 868.898 470.038 876.28 467.545C883.663 465.052 891.601 464.707 899.172 466.551C900.753 466.999 902.3 467.561 903.801 468.23C905.287 468.926 906.717 469.736 908.078 470.652C910.792 472.471 913.221 474.682 915.285 477.215C918.455 480.986 920.792 485.386 922.141 490.125C922.805 492.504 923.16 494.96 923.195 497.43C923.166 499.907 922.778 502.368 922.043 504.734C921.122 508.36 919.723 511.848 917.883 515.105C915.997 518.34 913.633 521.27 910.871 523.797C910.343 524.298 909.841 524.826 909.367 525.379C909.152 525.652 909.016 525.848 909.074 526.141C909.108 526.262 909.154 526.38 909.211 526.492C909.281 526.7 909.379 526.897 909.504 527.078C909.7 527.424 909.936 527.745 910.207 528.035C910.695 528.513 911.211 528.963 911.75 529.383C912.204 529.71 912.617 530.091 912.98 530.516C913.263 530.893 913.493 531.307 913.664 531.746C913.817 532.08 913.916 532.436 913.957 532.801C913.957 533.23 913.43 533.152 912.414 533.094C911.74 533.057 911.078 532.898 910.461 532.625C909.386 532.218 908.388 531.63 907.512 530.887C906.697 530.18 906.033 529.316 905.559 528.348C905.257 527.728 905.041 527.071 904.914 526.395C904.817 525.697 904.891 524.987 905.129 524.324C905.385 523.659 905.755 523.045 906.223 522.508C906.574 522.117 906.887 521.746 907.199 521.453L908.938 519.695C911.102 517.58 912.962 515.174 914.465 512.547C915.986 509.822 917.154 506.914 917.941 503.895C918.117 503.133 918.352 502.332 918.488 501.59C918.633 500.874 918.738 500.15 918.801 499.422C918.919 497.938 918.88 496.445 918.684 494.969C917.994 490.425 916.241 486.108 913.566 482.371C910.974 478.539 907.489 475.395 903.41 473.211L903.449 473.035Z" fill="#231F20"/>
<path d="M1015.93 437.937C1019.04 439.605 1022.31 440.947 1025.7 441.941C1028 442.645 1030.89 443.895 1033.35 443.27C1034.16 443.125 1034.91 442.741 1035.5 442.166C1036.09 441.592 1036.49 440.853 1036.65 440.047C1037.5 436.194 1037.99 432.271 1038.12 428.328C1038.25 426.551 1033.98 427.332 1033.86 428.836C1033.68 431.121 1033.45 433.406 1033.14 435.691C1033 436.746 1032.86 437.781 1032.69 438.816C1032.57 439.52 1031.89 441.082 1032.69 440.77C1031.77 441.219 1027.98 439.52 1027.02 439.207C1024.33 438.319 1021.71 437.195 1019.21 435.848C1017.94 435.164 1014.05 436.98 1015.85 437.957L1015.93 437.937Z" fill="#231F20"/>
<path d="M945.52 529.676C941.814 530.008 938.224 531.134 934.992 532.977C932.902 533.973 928.352 535.887 928.234 538.68C928.117 541.473 931.906 544.012 933.723 545.437C935.643 546.97 937.659 548.38 939.758 549.656C941.242 550.555 946.125 548.27 945.07 547.703C941.536 545.755 938.311 543.294 935.5 540.398C933.859 538.445 933.293 537.352 935.5 535.828C937.754 534.086 940.405 532.932 943.215 532.469C944.953 532.469 949.328 529.793 945.559 529.832L945.52 529.676Z" fill="#231F20"/>
<path d="M910.324 425.379C911.984 422.206 912.874 418.686 912.922 415.105C913.117 412.508 913.391 409.012 910.363 408.094C905.402 406.57 898.488 410.203 894.113 412.313C891.672 413.484 893.84 415.73 895.891 414.734C899.27 413.113 903.508 410.828 907.336 410.828C909.816 410.828 909.016 414.266 908.84 416.043C908.801 418.833 908.168 421.583 906.984 424.109C905.598 426.219 909.289 426.902 910.324 425.34V425.379Z" fill="#231F20"/>
<path d="M1025.13 452.664C1030.6 452.396 1036.06 453.233 1041.2 455.125C1046.36 456.959 1051.06 459.891 1054.97 463.719C1057.81 466.535 1060.11 469.844 1061.77 473.484C1064.75 479.738 1066.1 486.647 1065.68 493.562C1065.42 497.034 1064.56 500.432 1063.12 503.602C1061.65 506.752 1059.57 509.58 1057 511.922C1052.44 515.979 1046.78 518.601 1040.73 519.461C1033.09 520.737 1025.24 519.3 1018.55 515.398C1016.59 514.129 1017.14 513.836 1019.17 514.051C1021.2 514.266 1024.7 514.852 1028.63 515.477C1035.55 516.825 1042.72 515.879 1049.05 512.781C1052.1 511.219 1054.76 509.013 1056.87 506.316C1058.98 503.538 1060.45 500.331 1061.18 496.922C1063.14 488.621 1060.44 479.207 1055.83 471.805C1053.09 467.819 1049.52 464.472 1045.36 461.995C1041.2 459.517 1036.56 457.966 1031.75 457.449C1025.77 456.572 1019.66 457.447 1014.17 459.969C1010.08 461.906 1006.61 464.959 1004.17 468.777C1001.8 472.69 1000.3 477.066 999.758 481.609C998.918 488.66 1001.52 495.281 1004.7 501.746L1005.77 503.895L1006.05 504.949V505.223C1005.93 505.223 1006.3 505.223 1005.79 505.223V505.438L1005.7 505.965C1005.63 506.34 1005.47 506.691 1005.23 506.98L1004.52 507.918C1000.62 512.879 998.215 513.777 996.496 513.367C996.108 513.324 995.731 513.212 995.383 513.035C994.992 512.742 995.285 512.273 995.91 511.492C996.535 510.711 997.492 509.539 998.859 507.957C999.523 507.176 1000.17 506.355 1000.81 505.516L1001.05 505.184V505.066C1001.05 505.002 1001.05 504.936 1001.05 504.871C1001.05 504.871 1001.05 504.871 1001.05 504.715L1001.22 504.734C1001.07 504.539 1000.25 502.781 999.699 501.648C999.152 500.516 998.527 499.051 998 497.742C996.873 494.947 996.073 492.03 995.617 489.051C994.797 482.832 995.702 476.508 998.234 470.77C1000.47 465.436 1004.25 460.898 1009.09 457.742C1013.91 454.716 1019.43 452.987 1025.11 452.723L1025.13 452.664Z" fill="#231F20"/>
<path d="M887.258 456.297C889.84 440.714 897.301 426.353 908.566 415.281C909.523 414.324 905.051 414.852 904.211 415.672C892.784 426.866 885.189 441.386 882.512 457.156C882.336 458.211 887.063 457.43 887.258 456.297Z" fill="#231F20"/>
<path d="M989.25 535.574C974.044 542.079 957.045 543.073 941.184 538.387C939.23 537.879 934.523 540.613 937.727 541.512C955.524 546.568 974.524 545.305 991.496 537.938C995.109 536.395 991.828 534.461 989.25 535.555V535.574Z" fill="#231F20"/>
<path d="M997.57 407.723C1010.05 414.539 1020.11 423.191 1026.67 435.984C1027.3 437.215 1031.5 435.73 1031.03 434.832C1024.41 421.922 1014.27 413.055 1001.73 406.16C1000.56 405.516 996.887 407.293 997.648 407.723H997.57Z" fill="#231F20"/>
<path d="M944.602 382.313C945.993 385.981 947.001 389.784 947.609 393.66C948 395.496 950.812 394.715 950.441 392.879C949.76 388.757 948.648 384.717 947.121 380.828C946.379 379.109 943.859 380.594 944.602 382.313Z" fill="#231F20"/>
<path d="M954.406 381.043C955.552 384.095 956.351 387.266 956.789 390.496C957.199 392.332 960.031 391.551 959.621 389.715C959.108 386.239 958.204 382.832 956.926 379.559C956.125 377.859 953.605 379.344 954.406 381.043Z" fill="#231F20"/>
<path d="M950.715 387.254C952.027 386.724 953.397 386.35 954.797 386.141C955.172 386.037 955.491 385.788 955.684 385.45C955.876 385.111 955.926 384.71 955.822 384.334C955.719 383.958 955.47 383.639 955.131 383.447C954.793 383.255 954.391 383.205 954.016 383.309C952.371 383.596 950.765 384.075 949.23 384.734C947.57 385.613 949.055 388.152 950.715 387.254Z" fill="#231F20"/>
<path d="M962.805 380.066C963.586 382.469 964.289 384.91 965.012 387.332C965.115 387.708 965.364 388.027 965.703 388.219C966.041 388.411 966.443 388.461 966.818 388.357C967.194 388.254 967.513 388.005 967.705 387.666C967.897 387.328 967.947 386.926 967.844 386.551C967.121 384.129 966.398 381.687 965.617 379.285C965.031 377.488 962.199 378.27 962.805 380.066Z" fill="#231F20"/>
<path d="M875.246 496.277C872.063 500.066 875.637 507.469 880.695 507.195C883.781 507.039 885.051 503.582 884.777 500.926C884.406 497.586 882.102 494.285 878.449 494.422C877.529 494.392 876.619 494.623 875.825 495.088C875.031 495.553 874.384 496.233 873.959 497.049C873.534 497.866 873.349 498.786 873.425 499.704C873.5 500.621 873.834 501.498 874.387 502.234C875.5 503.738 878.039 502.234 876.926 500.75C876.242 499.812 875.93 498.797 876.926 497.977C877.406 497.629 877.983 497.441 878.576 497.441C879.169 497.441 879.747 497.629 880.227 497.977C881.672 499.07 882.844 502.859 881.066 504.188C880.012 504.949 878.586 503.523 878 502.762C877.121 501.668 876.262 499.715 877.297 498.465C878.332 497.215 876.457 494.949 875.227 496.395L875.246 496.277Z" fill="#231F20"/>
<path d="M887.043 495.535C888.193 497.241 889.249 499.008 890.207 500.828C890.416 501.137 890.734 501.356 891.098 501.438C891.462 501.52 891.844 501.461 892.165 501.271C892.487 501.082 892.724 500.777 892.828 500.419C892.932 500.061 892.896 499.676 892.727 499.344C891.794 497.525 890.764 495.758 889.641 494.051C888.527 492.547 885.988 494.051 887.102 495.535H887.043Z" fill="#231F20"/>
<path d="M891.789 490.789C892.99 493.711 894.359 496.561 895.891 499.324C896.945 500.867 899.484 499.324 898.43 497.84C896.877 495.085 895.5 492.234 894.309 489.305C893.449 487.625 890.93 489.109 891.789 490.789Z" fill="#231F20"/>
<path d="M892.531 498.27L894.738 497.313C895.06 497.117 895.295 496.805 895.393 496.442C895.491 496.078 895.446 495.69 895.266 495.359C895.064 495.044 894.752 494.816 894.391 494.718C894.03 494.621 893.645 494.661 893.312 494.832L891.105 495.77C890.787 495.968 890.555 496.28 890.458 496.642C890.36 497.005 890.403 497.391 890.578 497.723C890.78 498.038 891.092 498.266 891.453 498.364C891.814 498.461 892.198 498.421 892.531 498.25V498.27Z" fill="#231F20"/>
<path d="M1021.12 488.406C1023.86 484.5 1025.7 480.086 1028.25 476.082C1029.27 474.48 1026.73 473.016 1025.71 474.598C1023.16 478.602 1021.32 483.016 1018.61 486.941C1017.53 488.484 1020.07 489.949 1021.12 488.406Z" fill="#231F20"/>
<path d="M1026.12 492.02C1028.25 488.777 1030.08 485.344 1031.57 481.766C1032.43 480.105 1029.91 478.621 1029.04 480.281C1027.38 483.484 1026.3 487.078 1024.05 490.047C1022.9 491.531 1024.97 493.602 1026.12 492.117V492.02Z" fill="#231F20"/>
<path d="M1023.59 483.484C1024.56 484.291 1025.6 485.004 1026.71 485.613C1028.37 486.512 1029.86 483.992 1028.2 483.094C1027.3 482.616 1026.45 482.054 1025.66 481.414C1025.38 481.149 1025.01 481.001 1024.62 481.001C1024.24 481.001 1023.87 481.149 1023.59 481.414C1023.31 481.689 1023.16 482.061 1023.16 482.449C1023.16 482.837 1023.31 483.21 1023.59 483.484Z" fill="#231F20"/>
<path d="M1036.32 494.578C1037.22 492.625 1038.64 490.848 1039.64 488.895C1040.64 486.941 1037.96 485.711 1037.1 487.41C1036.24 489.109 1034.68 491.063 1033.78 493.016C1033.02 494.734 1035.54 496.219 1036.32 494.5V494.578Z" fill="#231F20"/>
<path d="M984.758 539.168C971.778 543.967 957.614 544.541 944.289 540.809C942.902 540.438 939.289 542.508 941.691 543.152C956.465 547.156 972.125 546.39 986.438 540.965C989.23 539.969 986.691 538.465 984.758 539.168Z" fill="#231F20"/>
<path d="M884.875 453.582C888.273 439.48 896.379 427.293 906.359 416.902C907.023 416.219 903.859 416.59 903.293 417.195C893.254 427.664 884.992 439.949 881.555 454.188C881.398 454.871 884.699 454.422 884.914 453.582H884.875Z" fill="#231F20"/>
<path d="M1001.46 407.742C1012.77 414.031 1020.99 423.367 1027.47 434.422C1028.06 435.418 1030.97 434.422 1030.25 433.191C1023.57 422.039 1015.25 412.527 1003.8 406.16C1002.8 405.594 1000.09 406.98 1001.46 407.742Z" fill="#231F20"/>
<path d="M944.328 355.438C913.645 363.25 906.281 392.547 919.523 410.418C928.898 423.074 944.914 424.227 959.504 422.762L964.191 418.641C964.191 418.641 933.254 423.25 923.742 403.445C923.742 403.445 915.402 392.898 921.789 377.82C928.176 362.742 944.328 355.438 944.328 355.438Z" fill="#231F20"/>
<path d="M870.656 469.891C846.672 477.391 840.949 508.641 858.703 524.07C863.046 528.247 868.758 530.704 874.777 530.984L880.461 528.875C880.461 528.875 860.578 523.172 856.867 512.645C853.156 502.117 849.797 486.004 870.656 469.891Z" fill="#231F20"/>
<path d="M1058.2 469.891C1066.57 479.441 1070.91 495.945 1064.86 507.176C1059.11 517.859 1047.45 524.285 1032.61 522.215L1026.75 518.406C1026.75 518.406 1043.57 520.633 1053.27 513.016C1062.63 505.75 1068.96 494.793 1058.2 469.891Z" fill="#231F20"/>
<path d="M1402.1 542.496C1395.73 542.46 1389.38 541.94 1383.2 540.949C1380.87 540.584 1378.58 540.1 1376.38 539.503C1372.36 538.375 1368.77 536.746 1365.82 534.719C1364.4 533.714 1363.15 532.623 1362.09 531.461C1360.95 530.208 1360.24 528.821 1360.01 527.389C1359.76 526.129 1359.91 524.849 1360.44 523.623C1361.02 522.415 1361.91 521.273 1363.08 520.243C1364.55 518.983 1366.51 517.971 1368.79 517.302C1371.06 516.633 1373.57 516.328 1376.08 516.416C1377.6 516.416 1377.37 516.945 1376.41 517.678C1375.21 518.64 1373.89 519.539 1372.45 520.365C1371.19 521.029 1370.08 521.796 1369.15 522.646C1368.29 523.383 1367.71 524.233 1367.47 525.13C1367.07 526.011 1367.01 526.94 1367.3 527.837C1367.73 528.908 1368.44 529.926 1369.42 530.851C1370.72 532.1 1372.42 533.179 1374.4 534.027C1376.48 534.842 1378.69 535.524 1380.99 536.063C1386.42 537.278 1392.12 537.965 1397.88 538.099C1401.54 538.231 1405.21 538.231 1408.87 538.099C1414.45 537.966 1419.99 537.419 1425.36 536.47C1429.36 535.739 1433.21 534.728 1436.84 533.457C1437.66 533.192 1438.39 532.887 1439.18 532.602C1442.12 531.543 1443.2 531.339 1444.52 531.645C1444.83 531.693 1445.12 531.755 1445.41 531.828C1446.14 532.052 1445.61 533.09 1443.57 534.271C1440.47 536.047 1437 537.554 1433.24 538.75C1431.33 539.367 1429.36 539.911 1427.34 540.379C1425.26 540.786 1423.15 541.112 1421.04 541.397C1414.77 542.163 1408.39 542.518 1402.01 542.456L1402.1 542.496Z" fill="#231F20"/>
<path d="M1418.99 543.962C1415.61 544.501 1412.19 544.929 1408.73 545.245L1404.94 545.55C1400.45 545.764 1395.94 545.683 1391.48 545.306C1389.5 545.143 1387.52 544.94 1385.58 544.675C1383.02 544.389 1380.59 543.786 1378.42 542.904C1377.76 542.598 1378.42 542.232 1379.25 542.008C1380.32 541.784 1381.47 541.784 1382.54 542.008C1387.1 542.975 1391.85 543.558 1396.66 543.738C1399.7 543.832 1402.74 543.723 1405.73 543.413C1409.07 543.155 1412.37 542.767 1415.63 542.252C1417.64 541.947 1419.62 541.539 1421.6 541.153L1426.09 540.175L1430.41 539.035C1432.62 538.363 1434.63 537.569 1436.77 536.857L1438.39 536.388C1440.14 535.798 1440.83 535.757 1441.69 535.941L1442.15 536.063C1442.54 536.226 1442.15 536.694 1440.9 537.325C1437.39 539.196 1433.44 540.727 1429.19 541.865C1426 542.785 1422.69 543.534 1419.29 544.105L1418.99 543.962Z" fill="#231F20"/>
<path d="M1425.59 557.094C1426.71 556.456 1427.67 555.714 1428.43 554.895C1428.76 554.59 1428.86 554.203 1429.15 553.898C1430.22 552.697 1431.18 551.46 1432.02 550.192C1432.45 549.643 1432.78 549.032 1433.14 548.441C1433.45 547.568 1434.22 546.781 1435.32 546.202C1435.72 545.998 1436.15 546.385 1436.57 546.853C1437 547.322 1437.47 547.749 1437.33 548.136C1436.92 549.661 1436.13 551.137 1434.99 552.513C1434.17 553.368 1433.84 554.407 1433.11 555.364C1432.31 556.432 1431.34 557.448 1430.21 558.397C1429.44 558.981 1428.58 559.513 1427.64 559.985L1426.58 560.535L1425.33 560.942C1424.52 561.224 1423.67 561.45 1422.79 561.614C1422.14 561.802 1421.47 561.952 1420.77 562.062C1420.08 562.208 1419.38 562.324 1418.66 562.408C1418.36 562.428 1418.05 562.428 1417.74 562.408C1416.59 562.408 1416.26 562.103 1416.16 561.39C1416.16 561.227 1416.16 561.085 1416.16 560.942C1416.18 560.7 1416.3 560.465 1416.51 560.259C1416.72 560.053 1417 559.882 1417.34 559.761C1419.42 559.13 1420.94 558.927 1422.42 558.479C1423.57 558.106 1424.62 557.625 1425.52 557.054L1425.59 557.094Z" fill="#231F20"/>
<path d="M1373.64 521.159C1372.69 521.367 1371.79 521.655 1370.97 522.015C1370.67 522.157 1370.5 522.361 1370.17 522.524C1369.03 523.061 1368.02 523.699 1367.17 524.417C1366.88 524.739 1366.73 525.105 1366.74 525.476C1366.74 525.944 1367.01 526.209 1366.41 526.575C1365.53 526.901 1364.54 527.103 1363.51 527.166C1362.16 527.308 1360.21 526.901 1360.21 526.331C1359.9 525.456 1360.05 524.543 1360.64 523.725C1361.12 523.004 1361.85 522.357 1362.79 521.831C1363.87 521.221 1364.37 520.406 1365.33 519.795C1366.4 519.133 1367.59 518.552 1368.89 518.065C1369.72 517.762 1370.59 517.504 1371.49 517.291C1372.15 517.108 1372.95 517.026 1373.64 516.884C1374.33 516.741 1375.16 516.741 1375.91 516.701C1376.67 516.66 1377.13 516.599 1377.76 516.599C1378.4 516.592 1379.04 516.626 1379.67 516.701C1379.96 516.717 1380.22 516.788 1380.43 516.904C1381.26 517.291 1381.29 517.658 1380.7 518.391C1380.57 518.553 1380.43 518.71 1380.27 518.859C1379.81 519.309 1379.17 519.681 1378.42 519.938C1376.57 520.569 1376.47 520.752 1375.72 520.874C1375.03 520.968 1374.36 521.118 1373.74 521.322L1373.64 521.159Z" fill="#231F20"/>
<path d="M1317.07 486.935C1309.07 481.324 1302.11 475.178 1296.32 468.611C1295.23 467.41 1294.27 466.168 1293.35 464.926C1292.36 463.702 1291.48 462.445 1290.71 461.159C1284.9 452.159 1282.49 442.46 1283.65 432.798C1283.85 430.762 1284.41 428.543 1284.84 426.426C1285.27 424.308 1286 422.232 1286.95 420.196C1288.79 414.844 1292.33 409.772 1297.38 405.272C1298.99 403.888 1299.12 404.234 1298.33 405.598C1297.54 406.962 1296.15 409.344 1294.34 412.194C1293.52 413.436 1292.82 414.699 1292.2 415.981C1291.57 417.264 1291.11 418.587 1290.48 419.89C1289.87 421.182 1289.37 422.494 1289 423.82C1288.6 425.143 1288.04 426.446 1287.81 427.892C1286.46 433.282 1286.25 438.756 1287.18 444.18C1288.39 450.746 1291.38 457.14 1296.02 463.094C1301.02 469.795 1307.34 476.093 1314.82 481.845C1319.38 485.407 1324.26 488.805 1329.44 492.025C1337.27 496.977 1345.5 501.68 1354.11 506.114C1360.71 509.575 1367.3 512.771 1374.13 516.11C1375.58 516.864 1377.07 517.556 1378.49 518.35C1383.83 521.241 1385.08 522.422 1385.78 523.379C1385.94 523.589 1386.07 523.807 1386.17 524.03C1386.17 524.539 1383.86 523.521 1379.87 521.526C1368 515.662 1355.1 509.575 1342.86 502.897C1333.67 497.945 1325.04 492.62 1317 486.955L1317.07 486.935Z" fill="#231F20"/>
<path d="M1301.33 401.343C1306.54 397.108 1312.57 393.292 1319.31 389.982C1326.11 386.793 1333.44 384.063 1341.18 381.838C1362.38 375.8 1386.15 374.088 1409.03 376.952C1412.03 377.318 1415.07 377.766 1418.04 378.316C1421.01 378.866 1423.94 379.619 1426.88 380.352C1437 383.131 1446.01 387.253 1453.27 392.425C1460.42 397.52 1466.01 403.378 1469.76 409.711C1477.04 422.236 1479.19 435.679 1476.03 448.842C1474.83 454.618 1472.97 460.333 1470.45 465.944C1467.95 471.484 1464.95 476.935 1461.48 482.272C1457.17 489.161 1452.12 495.862 1446.34 502.327C1440.65 508.803 1434.26 515.034 1427.21 520.976C1422.82 524.682 1422.62 523.806 1425.1 520.203C1426.35 518.411 1428.16 515.886 1430.44 512.893C1432.72 509.901 1435.39 506.419 1438.52 502.714C1444.1 496.178 1448.88 489.419 1453.43 482.639C1458 475.87 1461.8 468.91 1464.78 461.811C1471.15 447.728 1471.86 432.899 1466.86 418.608C1465.18 414.349 1462.77 410.213 1459.66 406.27C1456.52 402.322 1452.5 398.664 1447.72 395.398C1443 392.104 1437.42 389.312 1431.23 387.132C1425.02 384.988 1418.36 383.385 1411.44 382.368C1395.94 380.103 1379.8 380.067 1364.27 382.262C1348.74 384.458 1334.24 388.827 1321.88 395.031C1314.35 398.837 1308 403.46 1303.15 408.672C1302.06 410.016 1300.9 411.339 1299.85 412.744L1297.34 416.959C1295.93 419.87 1294.83 422.835 1294.04 425.835L1293.58 427.525L1293.35 429.256L1292.92 432.697V437.868L1293.19 439.578C1293.77 444.184 1295.21 448.734 1297.47 453.138C1299.73 457.553 1302.64 461.833 1306.15 465.924C1309.72 470.003 1313.72 473.934 1318.12 477.692C1331.91 489.337 1348.87 499.028 1366.28 508.516C1370.11 510.552 1373.93 512.588 1377.76 514.787C1392.01 522.747 1395.87 526.249 1396.6 529.039C1396.8 529.634 1396.89 530.242 1396.86 530.851C1396.86 531.176 1396.46 531.156 1395.9 530.851C1395.34 530.545 1394.72 530.016 1393.5 529.283C1391.22 527.837 1387.46 525.557 1382.25 522.727C1366.61 514.441 1349.79 506.032 1334.42 496.26C1318.28 486.535 1305.02 475.137 1295.26 462.585C1291.77 457.745 1289.1 452.696 1287.28 447.518C1285.54 442.283 1284.86 436.936 1285.24 431.597C1285.67 426.266 1287.11 420.984 1289.52 415.859C1292.15 410.66 1296.07 405.742 1301.14 401.282L1301.33 401.343Z" fill="#231F20"/>
<path d="M1386.6 539.218C1395.25 540.134 1404.08 540.134 1412.73 539.218C1416.02 538.872 1419.12 538.323 1422.19 537.915C1427.57 536.985 1432.71 535.615 1437.5 533.844C1442.3 532.14 1446.51 529.871 1449.9 527.166C1451.25 526.085 1452.06 524.784 1452.22 523.423C1452.38 522.063 1451.9 520.703 1450.82 519.51C1449.12 517.967 1446.86 516.685 1444.23 515.764C1441.49 514.75 1438.61 513.898 1435.62 513.219C1433.74 512.832 1434 512.445 1435.95 512.12C1439.17 511.616 1442.58 511.773 1445.65 512.568C1449.35 513.504 1452.63 514.978 1455.21 516.864C1456.59 517.954 1457.64 519.188 1458.31 520.508C1458.94 521.888 1459.01 523.34 1458.54 524.743C1457.65 527.269 1455.68 529.602 1452.84 531.502C1450.34 533.238 1447.46 534.741 1444.26 535.961C1440.58 537.469 1436.75 538.829 1432.78 540.033C1430.76 540.635 1428.69 541.172 1426.58 541.641C1425.56 541.886 1424.4 542.069 1423.28 542.272L1419.98 542.7C1410.66 544.058 1401.07 544.546 1391.52 544.145C1385.57 543.836 1379.72 543.021 1374.13 541.723C1369.87 540.599 1365.95 539.043 1362.52 537.121C1358.95 535.205 1356.3 532.718 1354.87 529.934C1353.76 527.671 1353.76 525.256 1354.87 522.992C1356.18 520.798 1358.38 518.849 1361.27 517.332C1362.49 516.677 1363.79 516.085 1365.16 515.561C1366.96 514.867 1368.97 514.416 1371.07 514.237C1371.62 514.193 1372.17 514.219 1372.71 514.314C1373.24 514.408 1373.74 514.569 1374.17 514.787C1374.55 514.93 1374.89 515.109 1375.19 515.316C1375.98 515.968 1374.13 516.925 1371.07 518.126C1366.69 519.549 1363.34 521.931 1361.66 524.804C1361.1 526.07 1361.1 527.406 1361.66 528.672C1362.36 530.066 1363.48 531.365 1364.96 532.5C1370.7 536.145 1378.27 538.478 1386.44 539.117L1386.6 539.218Z" fill="#231F20"/>
<path d="M1377.79 529.588C1382.65 530.81 1387.76 531.611 1392.97 531.97C1394.91 532.113 1396.86 532.093 1398.81 532.133C1405.78 532.362 1412.77 531.964 1419.55 530.952C1422.54 530.467 1425.44 529.784 1428.2 528.916C1431.54 527.839 1434.62 526.467 1437.33 524.845C1438.19 524.356 1438.82 524.641 1438.95 525.516C1439.02 526.183 1438.84 526.85 1438.43 527.467C1438.02 528.084 1437.38 528.636 1436.57 529.079C1429.7 532.634 1421.2 534.77 1412.26 535.187C1407.03 535.624 1401.75 535.855 1396.46 535.879C1390.59 535.823 1384.76 535.254 1379.15 534.19C1375.66 533.505 1372.34 532.547 1369.25 531.339C1366.86 530.384 1364.72 529.202 1362.92 527.837C1362.03 527.137 1361.24 526.387 1360.58 525.598C1359.69 524.695 1359.22 523.66 1359.22 522.605C1359.32 521.101 1360.11 519.646 1361.5 518.411C1362.78 517.245 1364.39 516.231 1366.25 515.418C1367.05 515.042 1367.92 514.715 1368.82 514.441C1372.35 513.463 1373.97 513.85 1374.76 514.705C1374.96 514.889 1375.13 515.087 1375.25 515.296C1375.52 515.947 1374.36 516.558 1372.68 517.128C1370.07 517.97 1367.87 519.229 1366.32 520.773C1365.74 521.325 1365.43 521.968 1365.42 522.625C1365.46 522.839 1365.56 523.047 1365.72 523.236C1365.72 523.46 1366.38 523.949 1366.68 524.315C1369.45 526.696 1373.32 528.5 1377.79 529.487V529.588Z" fill="#231F20"/>
<path d="M1396.79 548.217C1401.32 548.826 1405.97 548.984 1410.58 548.686C1412.31 548.564 1414.03 548.38 1415.73 548.136C1421.89 547.491 1427.9 546.369 1433.61 544.797C1436.12 544.077 1438.51 543.197 1440.73 542.171C1443.45 540.865 1445.99 539.422 1448.32 537.854C1449.11 537.406 1449.8 537.671 1450.16 538.526C1450.35 539.07 1450.35 539.632 1450.16 540.175C1449.87 540.837 1449.38 541.459 1448.71 542.008C1443.41 545.707 1436.56 548.439 1428.92 549.907C1424.4 550.897 1419.78 551.727 1415.1 552.391C1409.84 553.005 1404.47 553.163 1399.14 552.859C1395.76 552.633 1392.44 552.169 1389.24 551.475C1384.53 550.374 1380.23 548.706 1376.57 546.568C1373.61 544.983 1371.09 543.105 1369.12 541.01C1368.72 540.521 1368.33 540.053 1368 539.565C1367.04 537.529 1367.6 536.897 1368.92 536.307C1369.19 536.165 1369.48 536.036 1369.78 535.92C1370.7 535.615 1372.09 536.205 1373.31 537.244C1375.09 538.791 1376.61 540.257 1378.42 541.601C1380.21 542.947 1382.31 544.12 1384.66 545.082C1388.34 546.563 1392.45 547.592 1396.76 548.116L1396.79 548.217Z" fill="#231F20"/>
<path d="M1434.73 556.748C1432.96 558.41 1430.72 559.864 1428.13 561.044C1427.12 561.523 1426.01 561.913 1424.83 562.205C1422.74 562.726 1420.46 562.888 1418.23 562.673C1416.2 562.473 1414.23 562.052 1412.43 561.431C1410.91 560.922 1409.43 560.413 1408.01 559.843C1407.12 559.476 1406.19 559.11 1405.37 558.703C1404.58 558.241 1403.91 557.713 1403.36 557.135C1403 556.768 1403.62 556.463 1404.64 556.28C1405.72 556.077 1406.87 556.077 1407.94 556.28C1410.92 557.609 1414.14 558.716 1417.54 559.578C1418.51 559.76 1419.53 559.807 1420.52 559.715C1421.52 559.624 1422.48 559.396 1423.31 559.049C1425.45 558.254 1427.28 557.184 1428.69 555.913C1429.67 555.071 1430.56 554.194 1431.36 553.287C1432.58 551.882 1433.84 550.437 1434.89 548.93C1435.72 547.77 1436.28 546.528 1437.17 545.326C1437.37 545.062 1437.53 544.797 1437.76 544.532C1438.72 543.616 1439.51 543.514 1440.9 543.86C1441.19 543.86 1441.49 543.983 1441.72 544.064C1442.17 544.252 1442.52 544.52 1442.72 544.833C1442.92 545.145 1442.96 545.487 1442.84 545.815C1441.95 547.984 1440.64 550.076 1438.92 552.045C1437.63 553.592 1436.21 555.201 1434.56 556.809L1434.73 556.748Z" fill="#231F20"/>
<path d="M1378.62 423.25C1378.5 422.206 1378.5 421.158 1378.62 420.114L1378.82 418.465L1379.01 417.284C1379.21 416.836 1379.48 416.429 1379.67 416.002C1380.08 415.22 1380.81 414.518 1381.79 413.967C1382.78 413.416 1383.98 413.037 1385.28 412.866C1386.59 412.733 1387.93 412.788 1389.19 413.029C1390.46 413.269 1391.61 413.687 1392.57 414.251C1393.09 414.55 1393.57 414.869 1394.02 415.208C1394.42 415.483 1394.78 415.783 1395.08 416.104C1395.58 416.588 1396.03 417.091 1396.43 417.61C1397.18 418.558 1397.82 419.538 1398.34 420.542C1399.42 422.528 1400.18 424.573 1400.62 426.65C1402.32 434.692 1400.21 442.867 1394.55 450.186C1393.49 451.53 1392.27 452.824 1390.89 454.054C1390.15 454.713 1389.34 455.345 1388.48 455.947C1387.53 456.545 1386.5 457.096 1385.41 457.597C1383.18 458.549 1380.64 459.204 1377.97 459.519C1375.31 459.834 1372.56 459.804 1369.91 459.429C1365.64 458.84 1361.57 457.785 1357.9 456.314C1354.34 454.915 1351.07 453.246 1348.17 451.346C1345.3 449.37 1342.89 447.157 1341.02 444.77C1339.01 442.462 1337.57 439.986 1336.73 437.42C1335.72 434.7 1336.11 431.853 1337.85 429.276C1338.84 427.932 1340.3 426.742 1342.14 425.795C1344.19 424.82 1346.74 424.329 1349.33 424.41C1353.92 424.69 1358.17 426.028 1361.24 428.156C1364.18 429.997 1366.76 432.047 1368.92 434.264C1376.61 441.859 1380.93 450.389 1384.99 458.574C1387.78 463.905 1389.98 469.347 1391.58 474.862C1393.01 480.349 1393.22 485.932 1392.21 491.455C1391.55 494.936 1390.69 494.386 1389.83 491.455L1388.02 485.489C1387.16 483.066 1386.27 480.257 1385.45 477.223C1383.82 471.806 1381.61 466.46 1378.85 461.221C1376.24 455.846 1373.67 450.511 1370.5 445.421C1367.69 440.36 1363.44 435.646 1357.97 431.495C1356.68 430.567 1355.22 429.733 1353.62 429.012C1352.3 428.43 1350.75 428.084 1349.13 428.014C1348.44 428.007 1347.75 428.09 1347.11 428.259C1346.48 428.427 1345.9 428.677 1345.44 428.991C1344.22 429.758 1343.31 430.693 1342.8 431.719C1341.77 434.67 1342.35 437.748 1344.45 440.474C1346.4 443.481 1349.23 446.241 1352.79 448.618C1356.49 450.952 1360.83 452.855 1365.62 454.237C1367.74 454.927 1370.07 455.343 1372.45 455.458C1374.84 455.574 1377.24 455.387 1379.51 454.909C1381.81 454.245 1383.79 453.22 1385.25 451.937C1386.89 450.466 1388.3 448.906 1389.47 447.274C1391.79 443.927 1393.31 440.387 1393.96 436.769C1394.67 433.15 1394.5 429.485 1393.46 425.897C1392.9 424.139 1392.08 422.415 1391.02 420.746C1390.49 419.962 1389.87 419.206 1389.14 418.486C1388.8 418.057 1388.26 417.702 1387.59 417.468C1387.4 417.408 1387.19 417.375 1386.97 417.37C1386.76 417.364 1386.54 417.388 1386.34 417.438C1386.14 417.488 1385.96 417.564 1385.81 417.66C1385.66 417.756 1385.55 417.871 1385.48 417.997C1385.3 418.236 1385.18 418.489 1385.12 418.75C1384.92 419.251 1384.8 419.762 1384.75 420.277C1384.61 422.523 1384.9 424.771 1385.61 426.976C1386.28 429.199 1387.3 431.375 1388.68 433.47C1389.78 435.475 1391.71 437.266 1394.29 438.662C1396.24 439.441 1398.59 439.739 1400.88 439.497C1403.33 439.172 1405.59 438.471 1407.48 437.461C1411.59 435.309 1414.63 432.487 1416.26 429.317C1416.96 427.781 1417.11 426.17 1416.72 424.594C1416.49 423.138 1415.51 421.766 1413.91 420.684C1413.59 420.496 1413.2 420.35 1412.78 420.256C1412.35 420.163 1411.91 420.123 1411.46 420.141C1411.01 420.158 1410.57 420.231 1410.17 420.356C1409.77 420.481 1409.42 420.655 1409.13 420.868C1407.34 422.04 1405.96 423.426 1405.07 424.94C1404.35 426.087 1403.8 427.273 1403.42 428.482C1402.86 429.823 1402.42 431.182 1402.1 432.554C1401.47 435.184 1401.09 437.836 1400.98 440.494C1400.79 445.814 1401.44 451.134 1402.93 456.375C1403.62 458.676 1404.41 460.915 1405.37 463.195C1407.05 467.451 1408.67 470.179 1409.33 472.154C1410.03 473.535 1410.28 474.988 1410.05 476.429C1410 476.922 1409.89 477.412 1409.72 477.895C1409.2 479.015 1405.11 476.063 1401.44 469.751C1395.98 460.058 1393.52 449.813 1394.22 439.558C1394.43 436.926 1394.87 434.302 1395.54 431.699C1395.94 430.396 1396.2 429.052 1396.69 427.749L1397.39 425.713C1397.72 424.96 1398.08 424.288 1398.48 423.677C1399.33 422.248 1400.43 420.882 1401.77 419.605C1403.48 417.839 1406.16 416.509 1409.33 415.859C1411.34 415.52 1413.48 415.606 1415.4 416.104C1417.19 416.516 1418.76 417.219 1419.95 418.139C1421.86 419.542 1423.14 421.226 1423.68 423.026C1424.48 425.366 1424.42 427.786 1423.51 430.111C1422.52 432.289 1420.96 434.353 1418.89 436.219C1416.87 438.063 1414.4 439.704 1411.57 441.085C1408.45 442.644 1404.65 443.606 1400.65 443.854C1399.56 443.917 1398.45 443.917 1397.35 443.854C1396.27 443.752 1395.24 443.548 1394.06 443.385C1392.87 443.223 1392.14 442.856 1391.22 442.571C1390.23 442.202 1389.31 441.765 1388.48 441.268C1386 439.592 1384.06 437.635 1382.77 435.506C1380.3 431.686 1378.78 427.657 1378.26 423.555L1378.62 423.25Z" fill="#231F20"/>
<path d="M1509.31 428.177C1509.31 428.523 1508.45 428.38 1507.26 427.953C1506.75 427.721 1506.31 427.431 1505.98 427.098C1505.93 426.841 1505.93 426.581 1505.98 426.324C1506.6 425.625 1507.28 424.945 1508.02 424.288C1508.51 423.797 1509.14 423.363 1509.87 423.005C1511.28 422.261 1512.78 421.581 1514.35 420.969C1514.72 420.826 1515.12 420.723 1515.54 420.664C1516.94 420.431 1518.28 420.067 1519.5 419.585C1519.73 419.585 1519.96 419.463 1520.09 419.259C1521.42 418.65 1522.96 418.232 1524.58 418.038C1525.92 417.986 1527.26 417.986 1528.6 418.038C1528.8 418.038 1528.97 418.038 1529.2 418.038C1529.33 418.157 1529.52 418.246 1529.74 418.294C1529.96 418.342 1530.2 418.345 1530.42 418.302C1530.98 418.3 1531.53 418.348 1532.07 418.445C1532.38 418.565 1532.66 418.716 1532.89 418.893C1533.04 419.164 1533.04 419.456 1532.89 419.728C1532.69 419.931 1532.89 420.196 1532.89 420.46C1532.91 420.548 1532.91 420.637 1532.89 420.725C1532.08 421.254 1531.2 421.737 1530.25 422.171C1530.25 422.171 1529.33 422.395 1528.44 422.598C1527.74 422.76 1527.07 422.957 1526.43 423.189C1526.23 423.189 1525.97 423.189 1525.73 423.189C1525.5 423.189 1523.06 424.125 1522.96 424.166C1522.37 424.288 1521.94 424.573 1521.12 424.431C1521.12 424.431 1520.85 424.431 1520.75 424.431C1519.81 424.754 1518.83 425.033 1517.82 425.265C1517.31 425.424 1516.84 425.615 1516.4 425.835H1516.07C1515.95 425.824 1515.83 425.824 1515.71 425.835C1514.53 426.251 1513.42 426.742 1512.41 427.301C1512.21 427.423 1510.66 427.729 1510.43 427.912C1510.2 428.095 1509.31 428.034 1509.31 428.177Z" fill="#231F20"/>
<path d="M1477.51 382.815C1477.51 383.182 1476.62 383.019 1475.4 382.571C1474.86 382.339 1474.4 382.041 1474.05 381.696C1474 381.425 1474 381.152 1474.05 380.881C1474.05 380.739 1475.46 379.171 1475.96 378.601C1476.41 378.07 1477 377.589 1477.71 377.176C1479.09 376.361 1480.54 375.608 1482 374.875C1482.33 374.712 1482.71 374.594 1483.12 374.529C1484.46 374.265 1485.7 373.812 1486.71 373.206C1486.91 373.104 1487.11 373.043 1487.14 372.839C1487.17 372.636 1490.14 371.129 1490.6 371.068C1491.83 370.905 1492.95 370.64 1494.1 370.416C1494.3 370.416 1494.37 370.274 1494.69 370.416C1495.02 370.559 1495.65 370.416 1495.98 370.416C1496.45 370.272 1496.95 370.162 1497.47 370.091C1497.86 370.102 1498.25 370.157 1498.62 370.254C1498.98 370.254 1499.58 370.885 1499.61 370.966C1499.64 371.048 1500.1 371.414 1500.4 371.618L1500.73 371.842C1500.51 372.687 1500.1 373.509 1499.51 374.285C1499.51 374.285 1496.21 376.199 1495.85 376.443C1495.49 376.687 1495.35 376.585 1495.06 376.606C1494.76 376.626 1492.39 378.133 1492.25 378.153C1491.63 378.357 1491.2 378.744 1490.24 378.642C1490.04 378.642 1489.95 378.642 1489.85 378.744C1488.81 379.176 1487.71 379.538 1486.55 379.823C1486.02 380.006 1485.59 380.271 1485.1 380.474C1484.99 380.483 1484.88 380.483 1484.77 380.474C1484.62 380.457 1484.48 380.457 1484.34 380.474C1483.18 380.944 1482.08 381.461 1481.04 382.021C1480.32 382.2 1479.61 382.404 1478.93 382.632C1478.93 382.632 1477.54 382.653 1477.51 382.815Z" fill="#231F20"/>
<path d="M1390.23 359.728C1390.59 360.053 1389.87 360.338 1388.58 360.603C1387.97 360.684 1387.34 360.684 1386.73 360.603C1386.37 360.447 1386.02 360.27 1385.71 360.074C1385.55 359.972 1384.56 358.241 1384.06 357.692C1383.67 357.158 1383.38 356.597 1383.2 356.022C1382.81 354.882 1382.25 353.783 1381.92 352.663C1381.85 352.407 1381.85 352.145 1381.92 351.889C1382.14 351.012 1381.99 350.114 1381.49 349.283C1381.49 349.141 1381.49 348.978 1381.06 348.876C1380.24 348.018 1379.81 347.041 1379.81 346.046C1380.11 345.228 1380.32 344.398 1380.43 343.562C1380.43 343.44 1380.43 343.338 1380.43 343.196C1380.43 343.053 1380.86 342.646 1380.89 342.381C1380.9 342.016 1380.99 341.653 1381.16 341.302C1381.36 341.099 1381.75 340.854 1381.98 340.651C1382.13 340.58 1382.29 340.527 1382.46 340.496C1382.64 340.464 1382.82 340.455 1383.01 340.467C1383.34 340.59 1383.63 340.467 1383.93 340.345H1384.26C1385.63 340.775 1386.85 341.363 1387.85 342.076C1387.85 342.076 1388.35 342.768 1388.88 343.501C1389.23 344.058 1389.64 344.601 1390.1 345.13C1390.26 345.293 1390.1 345.496 1390.1 345.679C1390.1 345.863 1391.38 348 1391.38 348.102C1391.38 348.591 1391.81 349.059 1391.38 349.609C1391.34 349.656 1391.32 349.708 1391.32 349.762C1391.32 349.815 1391.34 349.867 1391.38 349.914C1391.57 350.757 1391.63 351.61 1391.55 352.459C1391.55 352.907 1391.55 353.314 1391.55 353.762C1391.56 353.844 1391.56 353.925 1391.55 354.007C1391.54 354.101 1391.54 354.197 1391.55 354.292C1391.55 355.31 1391.35 356.328 1391.55 357.346C1391.55 357.59 1390.89 358.71 1390.99 358.974C1391.09 359.239 1390.06 359.605 1390.23 359.728Z" fill="#231F20"/>
<path d="M1283.36 363.331C1282.66 363.331 1283.03 362.68 1284.05 361.825C1284.59 361.457 1285.21 361.141 1285.9 360.888L1287.35 360.766C1287.58 360.766 1289.99 361.58 1290.91 361.743C1291.71 361.931 1292.46 362.199 1293.12 362.537L1297.34 364.37C1297.68 364.504 1297.96 364.685 1298.17 364.899C1298.99 365.616 1300.14 366.168 1301.47 366.487C1301.7 366.487 1301.86 366.65 1302.19 366.589C1303.7 366.855 1305.11 367.313 1306.31 367.933C1307.11 368.577 1307.95 369.196 1308.85 369.785C1308.85 369.785 1309.22 369.785 1309.18 370.111C1309.15 370.437 1309.51 370.681 1309.81 370.844C1310.26 371.054 1310.65 371.309 1310.97 371.597C1311.11 371.832 1311.19 372.08 1311.2 372.33C1311.2 372.575 1310.5 373.145 1310.37 373.185C1310.24 373.226 1309.88 373.654 1309.65 373.918C1309.58 374.013 1309.49 374.102 1309.38 374.183C1308.04 374.354 1306.66 374.402 1305.29 374.325L1303.15 373.735C1302.03 373.45 1300.84 373.165 1300.57 373.124C1300.31 373.084 1300.15 372.9 1299.98 372.758C1299.82 372.615 1296.39 371.882 1296.25 371.801C1296.12 371.719 1294.84 371.414 1294.54 370.783C1294.54 370.681 1294.34 370.64 1294.21 370.6C1293.01 370.164 1291.9 369.637 1290.91 369.032C1290.37 368.756 1289.81 368.498 1289.23 368.258C1289.23 368.258 1289.23 368.116 1289 368.055C1288.95 367.954 1288.86 367.862 1288.73 367.79C1287.41 367.159 1286.42 366.304 1285.04 365.754C1284.68 365.632 1283.98 364.451 1283.62 364.288C1283.26 364.125 1283.69 363.331 1283.36 363.331Z" fill="#231F20"/>
<path d="M425.46 314C438 314 447.06 306.38 447.06 293.96C447.06 281.54 438 273.98 425.4 273.98H408.6V314H425.46ZM425.4 305H418.92V282.98H425.46C432.78 282.98 436.5 287.78 436.5 293.96C436.5 299.9 432.42 305 425.4 305ZM465.874 314.72C470.314 314.72 475.114 313.46 477.994 310.88L473.974 304.82C472.294 306.38 468.934 307.28 466.894 307.28C462.694 307.28 460.294 305.12 459.634 302.54H480.274V300.44C480.274 290.6 474.034 284.3 465.454 284.3C456.394 284.3 450.094 291.08 450.094 299.48C450.094 308.9 456.934 314.72 465.874 314.72ZM471.454 296.24H459.514C459.874 294.14 461.434 291.74 465.454 291.74C469.714 291.74 471.214 294.2 471.454 296.24ZM498.745 314.72C505.045 314.72 508.885 311.9 510.625 309.38L504.625 303.74C503.485 305.36 501.625 306.56 499.165 306.56C495.325 306.56 492.385 303.86 492.385 299.48C492.385 295.1 495.325 292.46 499.165 292.46C501.625 292.46 503.485 293.54 504.625 295.22L510.625 289.64C508.885 287.06 505.045 284.3 498.745 284.3C489.685 284.3 482.965 290.42 482.965 299.48C482.965 308.54 489.685 314.72 498.745 314.72ZM524.065 314V273.98H514.825V314H524.065ZM559.562 314V285.02H550.322V303.74C549.242 305.12 547.442 306.56 544.802 306.56C541.802 306.56 540.002 305.36 540.002 301.82V285.02H530.762V305.66C530.762 310.94 533.762 314.72 540.302 314.72C545.222 314.72 548.522 312.56 550.322 310.52V314H559.562ZM577.25 314.72C580.67 314.72 582.95 313.88 584.09 312.8L582.29 305.84C581.99 306.2 580.97 306.56 579.95 306.56C578.39 306.56 577.43 305.3 577.43 303.62V293H583.31V285.02H577.43V277.1H568.19V285.02H563.39V293H568.19V306.2C568.19 311.78 571.37 314.72 577.25 314.72ZM598.871 314.72C602.291 314.72 604.571 313.88 605.711 312.8L603.911 305.84C603.611 306.2 602.591 306.56 601.571 306.56C600.011 306.56 599.051 305.3 599.051 303.62V293H604.931V285.02H599.051V277.1H589.811V285.02H585.011V293H589.811V306.2C589.811 311.78 592.991 314.72 598.871 314.72ZM623.432 314.72C627.872 314.72 632.672 313.46 635.552 310.88L631.532 304.82C629.852 306.38 626.492 307.28 624.452 307.28C620.252 307.28 617.852 305.12 617.192 302.54H637.832V300.44C637.832 290.6 631.592 284.3 623.012 284.3C613.952 284.3 607.652 291.08 607.652 299.48C607.652 308.9 614.492 314.72 623.432 314.72ZM629.012 296.24H617.072C617.432 294.14 618.992 291.74 623.012 291.74C627.272 291.74 628.772 294.2 629.012 296.24ZM651.623 314V295.52C652.823 293.9 656.003 292.88 658.403 292.88C659.363 292.88 660.143 292.94 660.683 293.12V284.24C657.263 284.24 653.543 286.22 651.623 288.56V285.02H642.383V314H651.623ZM664.35 314.66C667.41 314.66 669.99 312.08 669.99 309.02C669.99 306.02 667.41 303.44 664.35 303.44C661.29 303.44 658.65 306.02 658.65 309.02C658.65 312.08 661.29 314.66 664.35 314.66Z" fill="#54595F"/>
<path d="M843.42 314L858.48 273.98H846.78L836.94 302.84L827.04 273.98H815.34L830.4 314H843.42ZM865.816 282.44C868.756 282.44 871.156 280.04 871.156 277.1C871.156 274.16 868.756 271.82 865.816 271.82C862.876 271.82 860.536 274.16 860.536 277.1C860.536 280.04 862.876 282.44 865.816 282.44ZM870.436 314V285.02H861.196V314H870.436ZM888.293 314.72C896.573 314.72 901.433 310.76 901.433 305.24C901.433 293.36 884.633 296.66 884.633 293.48C884.633 292.34 886.073 291.5 888.233 291.5C891.713 291.5 895.013 293 896.753 294.68L900.293 288.14C897.173 285.86 893.093 284.3 888.173 284.3C880.193 284.3 875.753 288.74 875.753 293.84C875.753 305.6 892.613 301.88 892.613 305.48C892.613 306.74 891.473 307.52 888.713 307.52C885.293 307.52 880.673 305.54 878.513 303.62L874.673 310.22C877.733 312.98 883.073 314.72 888.293 314.72ZM934.996 314V285.02H925.756V303.74C924.676 305.12 922.876 306.56 920.236 306.56C917.236 306.56 915.436 305.36 915.436 301.82V285.02H906.196V305.66C906.196 310.94 909.196 314.72 915.736 314.72C920.656 314.72 923.956 312.56 925.756 310.52V314H934.996ZM968.044 314V295.88C968.044 286.88 961.504 284.3 954.544 284.3C950.104 284.3 945.124 285.62 941.404 288.8L944.824 295.22C947.164 293.24 950.044 292.1 952.924 292.1C956.644 292.1 958.804 293.84 958.804 296.36V299.24C957.064 297.08 953.644 295.82 949.804 295.82C945.364 295.82 939.844 298.16 939.844 305.18C939.844 311.66 945.364 314.72 949.804 314.72C953.524 314.72 957.004 313.28 958.804 311.12V314H968.044ZM953.644 308.66C951.244 308.66 949.024 307.58 949.024 305.3C949.024 303.02 951.244 301.94 953.644 301.94C955.684 301.94 957.844 302.6 958.804 303.98V306.56C957.844 307.94 955.684 308.66 953.644 308.66ZM983.991 314V273.98H974.751V314H983.991ZM995.308 282.44C998.248 282.44 1000.65 280.04 1000.65 277.1C1000.65 274.16 998.248 271.82 995.308 271.82C992.368 271.82 990.028 274.16 990.028 277.1C990.028 280.04 992.368 282.44 995.308 282.44ZM999.928 314V285.02H990.688V314H999.928ZM1029.97 314V306.02H1017.85L1029.73 291.56V285.02H1005.55V293H1017.19L1005.55 307.16V314H1029.97ZM1049.55 314.72C1053.99 314.72 1058.79 313.46 1061.67 310.88L1057.65 304.82C1055.97 306.38 1052.61 307.28 1050.57 307.28C1046.37 307.28 1043.97 305.12 1043.31 302.54H1063.95V300.44C1063.95 290.6 1057.71 284.3 1049.13 284.3C1040.07 284.3 1033.77 291.08 1033.77 299.48C1033.77 308.9 1040.61 314.72 1049.55 314.72ZM1055.13 296.24H1043.19C1043.55 294.14 1045.11 291.74 1049.13 291.74C1053.39 291.74 1054.89 294.2 1055.13 296.24ZM1073.12 314.66C1076.18 314.66 1078.76 312.08 1078.76 309.02C1078.76 306.02 1076.18 303.44 1073.12 303.44C1070.06 303.44 1067.42 306.02 1067.42 309.02C1067.42 312.08 1070.06 314.66 1073.12 314.66Z" fill="#54595F"/>
<path d="M1248.22 314.72C1257.88 314.72 1263.1 309.08 1265.68 303.98L1256.8 299.78C1255.48 302.96 1252.06 305.6 1248.22 305.6C1241.68 305.6 1237.06 300.56 1237.06 294.02C1237.06 287.42 1241.68 282.44 1248.22 282.44C1252.06 282.44 1255.48 285.08 1256.8 288.26L1265.68 284C1263.1 278.78 1257.88 273.32 1248.22 273.32C1235.92 273.32 1226.56 281.66 1226.56 294.02C1226.56 306.32 1235.92 314.72 1248.22 314.72ZM1283.76 314.72C1293.72 314.72 1299.6 307.64 1299.6 299.48C1299.6 291.32 1293.72 284.3 1283.76 284.3C1273.92 284.3 1268.04 291.32 1268.04 299.48C1268.04 307.64 1273.92 314.72 1283.76 314.72ZM1283.76 306.56C1279.8 306.56 1277.52 303.38 1277.52 299.48C1277.52 295.64 1279.8 292.46 1283.76 292.46C1287.84 292.46 1290.12 295.64 1290.12 299.48C1290.12 303.38 1287.84 306.56 1283.76 306.56ZM1350.19 314V293C1350.19 287.06 1346.83 284.3 1341.49 284.3C1336.93 284.3 1333.15 286.94 1331.47 289.46C1330.27 286.04 1327.45 284.3 1323.25 284.3C1318.69 284.3 1314.97 286.88 1313.71 288.56V285.02H1304.47V314H1313.71V295.28C1314.67 294.08 1316.41 292.46 1318.93 292.46C1321.69 292.46 1322.71 294.14 1322.71 296.36V314H1331.95V295.28C1332.85 294.08 1334.65 292.46 1337.17 292.46C1339.93 292.46 1341.01 294.14 1341.01 296.36V314H1350.19ZM1374.79 314.72C1382.05 314.72 1387.51 309.32 1387.51 299.48C1387.51 289.7 1382.05 284.3 1374.79 284.3C1371.49 284.3 1368.49 285.62 1366.21 288.38V285.02H1356.97V325.04H1366.21V310.58C1368.61 313.46 1371.55 314.72 1374.79 314.72ZM1371.73 306.56C1369.75 306.56 1367.35 305.42 1366.21 303.92V295.1C1367.35 293.54 1369.75 292.46 1371.73 292.46C1375.33 292.46 1378.09 295.16 1378.09 299.48C1378.09 303.86 1375.33 306.56 1371.73 306.56ZM1401.55 314V295.52C1402.75 293.9 1405.93 292.88 1408.33 292.88C1409.29 292.88 1410.07 292.94 1410.61 293.12V284.24C1407.19 284.24 1403.47 286.22 1401.55 288.56V285.02H1392.31V314H1401.55ZM1428.73 314.72C1433.17 314.72 1437.97 313.46 1440.85 310.88L1436.83 304.82C1435.15 306.38 1431.79 307.28 1429.75 307.28C1425.55 307.28 1423.15 305.12 1422.49 302.54H1443.13V300.44C1443.13 290.6 1436.89 284.3 1428.31 284.3C1419.25 284.3 1412.95 291.08 1412.95 299.48C1412.95 308.9 1419.79 314.72 1428.73 314.72ZM1434.31 296.24H1422.37C1422.73 294.14 1424.29 291.74 1428.31 291.74C1432.57 291.74 1434.07 294.2 1434.31 296.24ZM1476.6 314V293.36C1476.6 288.02 1473.6 284.3 1467 284.3C1462.14 284.3 1458.72 286.52 1456.98 288.56V273.98H1447.74V314H1456.98V295.28C1458.06 293.96 1459.86 292.46 1462.56 292.46C1465.5 292.46 1467.36 293.6 1467.36 297.14V314H1476.6ZM1497.22 314.72C1501.66 314.72 1506.46 313.46 1509.34 310.88L1505.32 304.82C1503.64 306.38 1500.28 307.28 1498.24 307.28C1494.04 307.28 1491.64 305.12 1490.98 302.54H1511.62V300.44C1511.62 290.6 1505.38 284.3 1496.8 284.3C1487.74 284.3 1481.44 291.08 1481.44 299.48C1481.44 308.9 1488.28 314.72 1497.22 314.72ZM1502.8 296.24H1490.86C1491.22 294.14 1492.78 291.74 1496.8 291.74C1501.06 291.74 1502.56 294.2 1502.8 296.24ZM1545.03 314V293.48C1545.03 288.14 1542.03 284.3 1535.49 284.3C1530.57 284.3 1527.15 286.52 1525.41 288.56V285.02H1516.17V314H1525.41V295.28C1526.49 293.96 1528.29 292.46 1531.05 292.46C1533.93 292.46 1535.79 293.72 1535.79 297.26V314H1545.03ZM1580.42 314V273.98H1571.24V288.44C1568.96 285.56 1565.84 284.3 1562.66 284.3C1555.4 284.3 1549.88 290 1549.88 299.48C1549.88 309.32 1555.52 314.72 1562.66 314.72C1565.9 314.72 1568.84 313.4 1571.24 310.64V314H1580.42ZM1565.66 306.56C1562 306.56 1559.3 303.8 1559.3 299.48C1559.3 295.16 1562 292.46 1565.66 292.46C1567.64 292.46 1570.04 293.48 1571.24 295.04V303.92C1570.04 305.48 1567.64 306.56 1565.66 306.56ZM1591.93 314.66C1594.99 314.66 1597.57 312.08 1597.57 309.02C1597.57 306.02 1594.99 303.44 1591.93 303.44C1588.87 303.44 1586.23 306.02 1586.23 309.02C1586.23 312.08 1588.87 314.66 1591.93 314.66Z" fill="#54595F"/>
<path d="M434.725 750.48C441.925 750.48 444.565 746.48 444.565 742.64C444.565 732.68 428.765 736.12 428.765 730.12C428.765 727.6 431.085 725.88 434.245 725.88C437.165 725.88 439.965 726.84 441.965 729.08L443.965 726.64C441.725 724.28 438.565 722.88 434.525 722.88C429.245 722.88 425.325 725.92 425.325 730.32C425.325 739.84 441.125 736 441.125 742.88C441.125 744.96 439.605 747.52 434.845 747.52C431.085 747.52 428.205 745.68 426.485 743.68L424.485 746.24C426.685 748.72 430.125 750.48 434.725 750.48ZM453.658 750.48C455.378 750.48 456.458 749.96 457.218 749.24L456.338 746.96C455.938 747.4 455.178 747.8 454.298 747.8C453.018 747.8 452.378 746.76 452.378 745.32V733.32H456.298V730.68H452.378V725.4H449.338V730.68H446.138V733.32H449.338V745.96C449.338 748.84 450.778 750.48 453.658 750.48ZM475.576 750V736.72C475.576 732.04 472.216 730.2 468.096 730.2C464.936 730.2 462.456 731.24 460.376 733.4L461.776 735.48C463.496 733.6 465.376 732.8 467.696 732.8C470.496 732.8 472.576 734.28 472.576 736.84V740.32C471.016 738.56 468.816 737.72 466.176 737.72C462.896 737.72 459.456 739.72 459.456 744.08C459.456 748.28 462.936 750.48 466.176 750.48C468.776 750.48 471.016 749.56 472.576 747.8V750H475.576ZM467.296 748.32C464.456 748.32 462.496 746.56 462.496 744.08C462.496 741.64 464.456 739.88 467.296 739.88C469.376 739.88 471.416 740.68 472.576 742.24V745.92C471.416 747.52 469.376 748.32 467.296 748.32ZM484.629 750V736.32C485.509 734.76 488.029 733.24 489.909 733.24C490.349 733.24 490.709 733.28 491.069 733.32V730.24C488.429 730.24 486.189 731.76 484.629 733.76V730.68H481.629V750H484.629ZM499.752 750.48C501.472 750.48 502.552 749.96 503.312 749.24L502.432 746.96C502.032 747.4 501.272 747.8 500.392 747.8C499.112 747.8 498.472 746.76 498.472 745.32V733.32H502.392V730.68H498.472V725.4H495.432V730.68H492.232V733.32H495.432V745.96C495.432 748.84 496.872 750.48 499.752 750.48ZM525.381 750L533.421 730.68H530.181L523.741 746.52L517.341 730.68H514.061L522.101 750H525.381ZM538.071 727.92C539.191 727.92 540.071 727.04 540.071 725.92C540.071 724.8 539.191 723.88 538.071 723.88C536.951 723.88 536.031 724.8 536.031 725.92C536.031 727.04 536.951 727.92 538.071 727.92ZM539.551 750V730.68H536.551V750H539.551ZM551.695 750.48C556.655 750.48 559.255 747.88 559.255 744.64C559.255 737.12 547.295 739.88 547.295 735.68C547.295 733.96 548.935 732.64 551.575 732.64C554.095 732.64 556.175 733.68 557.335 735.08L558.735 733C557.215 731.44 554.895 730.2 551.575 730.2C546.975 730.2 544.415 732.72 544.415 735.76C544.415 742.92 556.375 740.04 556.375 744.72C556.375 746.64 554.735 748.04 551.775 748.04C549.135 748.04 546.695 746.76 545.415 745.28L543.895 747.44C545.855 749.48 548.495 750.48 551.695 750.48ZM580.169 750V730.68H577.169V744.88C576.049 746.44 573.809 747.8 571.489 747.8C568.849 747.8 567.129 746.8 567.129 743.4V730.68H564.129V744.32C564.129 748.48 566.249 750.48 570.289 750.48C573.169 750.48 575.689 748.96 577.169 747.28V750H580.169ZM601.24 750V736.72C601.24 732.04 597.88 730.2 593.76 730.2C590.6 730.2 588.12 731.24 586.04 733.4L587.44 735.48C589.16 733.6 591.04 732.8 593.36 732.8C596.16 732.8 598.24 734.28 598.24 736.84V740.32C596.68 738.56 594.48 737.72 591.84 737.72C588.56 737.72 585.12 739.72 585.12 744.08C585.12 748.28 588.6 750.48 591.84 750.48C594.44 750.48 596.68 749.56 598.24 747.8V750H601.24ZM592.96 748.32C590.12 748.32 588.16 746.56 588.16 744.08C588.16 741.64 590.12 739.88 592.96 739.88C595.04 739.88 597.08 740.68 598.24 742.24V745.92C597.08 747.52 595.04 748.32 592.96 748.32ZM610.293 750V723.32H607.293V750H610.293ZM617.797 727.92C618.917 727.92 619.797 727.04 619.797 725.92C619.797 724.8 618.917 723.88 617.797 723.88C616.677 723.88 615.757 724.8 615.757 725.92C615.757 727.04 616.677 727.92 617.797 727.92ZM619.277 750V730.68H616.277V750H619.277ZM639.062 750V747.36H628.182L638.902 732.96V730.68H624.342V733.32H634.982L624.342 747.64V750H639.062ZM645.649 727.92C646.769 727.92 647.649 727.04 647.649 725.92C647.649 724.8 646.769 723.88 645.649 723.88C644.529 723.88 643.609 724.8 643.609 725.92C643.609 727.04 644.529 727.92 645.649 727.92ZM647.129 750V730.68H644.129V750H647.129ZM669.153 750V736.44C669.153 732.24 667.033 730.2 663.033 730.2C660.113 730.2 657.473 731.84 656.113 733.48V730.68H653.113V750H656.113V735.88C657.273 734.32 659.473 732.88 661.833 732.88C664.433 732.88 666.193 733.92 666.193 737.36V750H669.153ZM682.944 757.84C687.664 757.84 692.184 755.84 692.184 749.72V730.68H689.184V733.6C687.624 731.48 685.264 730.2 682.664 730.2C677.584 730.2 674.064 734.04 674.064 740.24C674.064 746.48 677.624 750.24 682.664 750.24C685.384 750.24 687.744 748.76 689.184 746.8V749.72C689.184 753.8 686.144 755.36 682.944 755.36C680.184 755.36 678.264 754.64 676.664 752.76L675.144 754.92C677.464 757.2 679.704 757.84 682.944 757.84ZM683.424 747.56C679.504 747.56 677.184 744.48 677.184 740.24C677.184 735.96 679.504 732.88 683.424 732.88C685.784 732.88 688.104 734.32 689.184 735.96V744.44C688.104 746.12 685.784 747.56 683.424 747.56ZM707.503 757.56C708.023 757.72 709.023 757.84 709.663 757.84C712.223 757.8 714.183 756.72 715.343 753.92L725.023 730.68H721.783L715.343 746.52L708.943 730.68H705.663L713.743 750.2L712.463 753.12C711.783 754.72 710.903 755.16 709.583 755.16C709.103 755.16 708.383 755.04 707.943 754.84L707.503 757.56ZM736.592 750.48C742.472 750.48 746.152 745.92 746.152 740.32C746.152 734.72 742.472 730.2 736.592 730.2C730.712 730.2 727.032 734.72 727.032 740.32C727.032 745.92 730.712 750.48 736.592 750.48ZM736.592 747.8C732.472 747.8 730.192 744.28 730.192 740.32C730.192 736.4 732.472 732.88 736.592 732.88C740.712 732.88 742.992 736.4 742.992 740.32C742.992 744.28 740.712 747.8 736.592 747.8ZM767.083 750V730.68H764.083V744.88C762.963 746.44 760.723 747.8 758.403 747.8C755.763 747.8 754.043 746.8 754.043 743.4V730.68H751.043V744.32C751.043 748.48 753.163 750.48 757.203 750.48C760.083 750.48 762.603 748.96 764.083 747.28V750H767.083ZM776.074 750V736.32C776.954 734.76 779.474 733.24 781.354 733.24C781.794 733.24 782.154 733.28 782.514 733.32V730.24C779.874 730.24 777.634 731.76 776.074 733.76V730.68H773.074V750H776.074ZM801.549 750.48C803.269 750.48 804.349 749.96 805.109 749.24L804.229 746.96C803.829 747.4 803.069 747.8 802.189 747.8C800.909 747.8 800.269 746.76 800.269 745.32V733.32H804.189V730.68H800.269V725.4H797.229V730.68H794.029V733.32H797.229V745.96C797.229 748.84 798.669 750.48 801.549 750.48ZM817.147 750.48C820.267 750.48 822.867 749.4 824.827 747.48L823.387 745.52C821.827 747.12 819.627 748 817.387 748C813.227 748 810.707 744.96 810.467 741.32H826.067V740.56C826.067 734.76 822.627 730.2 816.787 730.2C811.267 730.2 807.267 734.72 807.267 740.32C807.267 746.36 811.387 750.48 817.147 750.48ZM823.107 739.08H810.427C810.587 736.16 812.627 732.68 816.747 732.68C821.147 732.68 823.067 736.24 823.107 739.08ZM846.926 750L839.486 740.08L846.486 730.68H843.046L837.646 738.04L832.286 730.68H828.806L835.806 740.08L828.406 750H831.846L837.646 742.08L843.486 750H846.926ZM855.338 750.48C857.058 750.48 858.138 749.96 858.898 749.24L858.018 746.96C857.618 747.4 856.858 747.8 855.978 747.8C854.698 747.8 854.058 746.76 854.058 745.32V733.32H857.978V730.68H854.058V725.4H851.018V730.68H847.818V733.32H851.018V745.96C851.018 748.84 852.458 750.48 855.338 750.48ZM865.176 744.76V736C866.216 734.32 868.576 732.88 870.976 732.88C874.856 732.88 877.176 736.08 877.176 740.36C877.176 744.64 874.856 747.8 870.976 747.8C868.576 747.8 866.216 746.44 865.176 744.76ZM865.176 750V747.12C866.616 749.08 868.976 750.48 871.696 750.48C876.736 750.48 880.296 746.64 880.296 740.36C880.296 734.16 876.776 730.2 871.696 730.2C869.096 730.2 866.736 731.48 865.176 733.6V723.32H862.176V750H865.176ZM893.624 750.48C899.504 750.48 903.184 745.92 903.184 740.32C903.184 734.72 899.504 730.2 893.624 730.2C887.744 730.2 884.064 734.72 884.064 740.32C884.064 745.92 887.744 750.48 893.624 750.48ZM893.624 747.8C889.504 747.8 887.224 744.28 887.224 740.32C887.224 736.4 889.504 732.88 893.624 732.88C897.744 732.88 900.024 736.4 900.024 740.32C900.024 744.28 897.744 747.8 893.624 747.8ZM916.514 750.48C922.394 750.48 926.074 745.92 926.074 740.32C926.074 734.72 922.394 730.2 916.514 730.2C910.634 730.2 906.954 734.72 906.954 740.32C906.954 745.92 910.634 750.48 916.514 750.48ZM916.514 747.8C912.394 747.8 910.114 744.28 910.114 740.32C910.114 736.4 912.394 732.88 916.514 732.88C920.634 732.88 922.914 736.4 922.914 740.32C922.914 744.28 920.634 747.8 916.514 747.8ZM947.965 750L939.365 739.44L947.925 730.68H944.125L933.965 740.96V723.32H930.965V750H933.965V744.48L937.205 741.32L944.125 750H947.965ZM957.672 750.48C962.632 750.48 965.232 747.88 965.232 744.64C965.232 737.12 953.272 739.88 953.272 735.68C953.272 733.96 954.912 732.64 957.552 732.64C960.072 732.64 962.152 733.68 963.312 735.08L964.712 733C963.192 731.44 960.872 730.2 957.552 730.2C952.952 730.2 950.392 732.72 950.392 735.76C950.392 742.92 962.352 740.04 962.352 744.72C962.352 746.64 960.712 748.04 957.752 748.04C955.112 748.04 952.672 746.76 951.392 745.28L949.872 747.44C951.832 749.48 954.472 750.48 957.672 750.48ZM974.145 749.04C974.145 747.12 972.985 746 971.625 746C970.425 746 969.505 747 969.505 748.16C969.505 749.32 970.345 750.2 971.425 750.2C971.625 750.2 971.905 750.16 971.985 750.12C971.825 751.44 970.665 753 969.385 753.84L970.905 755.08C972.745 753.76 974.145 751.48 974.145 749.04ZM1004.76 750V736.72C1004.76 732.04 1001.4 730.2 997.276 730.2C994.116 730.2 991.636 731.24 989.556 733.4L990.956 735.48C992.676 733.6 994.556 732.8 996.876 732.8C999.676 732.8 1001.76 734.28 1001.76 736.84V740.32C1000.2 738.56 997.996 737.72 995.356 737.72C992.076 737.72 988.636 739.72 988.636 744.08C988.636 748.28 992.116 750.48 995.356 750.48C997.956 750.48 1000.2 749.56 1001.76 747.8V750H1004.76ZM996.476 748.32C993.636 748.32 991.676 746.56 991.676 744.08C991.676 741.64 993.636 739.88 996.476 739.88C998.556 739.88 1000.6 740.68 1001.76 742.24V745.92C1000.6 747.52 998.556 748.32 996.476 748.32ZM1013.81 750V736.32C1014.69 734.76 1017.21 733.24 1019.09 733.24C1019.53 733.24 1019.89 733.28 1020.25 733.32V730.24C1017.61 730.24 1015.37 731.76 1013.81 733.76V730.68H1010.81V750H1013.81ZM1028.93 750.48C1030.65 750.48 1031.73 749.96 1032.49 749.24L1031.61 746.96C1031.21 747.4 1030.45 747.8 1029.57 747.8C1028.29 747.8 1027.65 746.76 1027.65 745.32V733.32H1031.57V730.68H1027.65V725.4H1024.61V730.68H1021.41V733.32H1024.61V745.96C1024.61 748.84 1026.05 750.48 1028.93 750.48ZM1037.29 727.92C1038.41 727.92 1039.29 727.04 1039.29 725.92C1039.29 724.8 1038.41 723.88 1037.29 723.88C1036.17 723.88 1035.25 724.8 1035.25 725.92C1035.25 727.04 1036.17 727.92 1037.29 727.92ZM1038.77 750V730.68H1035.77V750H1038.77ZM1053.27 750.48C1056.79 750.48 1058.87 749.04 1060.35 747.12L1058.35 745.28C1057.07 747 1055.43 747.8 1053.43 747.8C1049.35 747.8 1046.75 744.6 1046.75 740.32C1046.75 736.04 1049.35 732.88 1053.43 732.88C1055.43 732.88 1057.07 733.6 1058.35 735.36L1060.35 733.56C1058.87 731.64 1056.79 730.2 1053.27 730.2C1047.51 730.2 1043.63 734.6 1043.63 740.32C1043.63 746.04 1047.51 750.48 1053.27 750.48ZM1067.6 750V723.32H1064.6V750H1067.6ZM1082.34 750.48C1085.46 750.48 1088.06 749.4 1090.02 747.48L1088.58 745.52C1087.02 747.12 1084.82 748 1082.58 748C1078.42 748 1075.9 744.96 1075.66 741.32H1091.26V740.56C1091.26 734.76 1087.82 730.2 1081.98 730.2C1076.46 730.2 1072.46 734.72 1072.46 740.32C1072.46 746.36 1076.58 750.48 1082.34 750.48ZM1088.3 739.08H1075.62C1075.78 736.16 1077.82 732.68 1081.94 732.68C1086.34 732.68 1088.26 736.24 1088.3 739.08ZM1102.28 750.48C1107.24 750.48 1109.84 747.88 1109.84 744.64C1109.84 737.12 1097.88 739.88 1097.88 735.68C1097.88 733.96 1099.52 732.64 1102.16 732.64C1104.68 732.64 1106.76 733.68 1107.92 735.08L1109.32 733C1107.8 731.44 1105.48 730.2 1102.16 730.2C1097.56 730.2 1095 732.72 1095 735.76C1095 742.92 1106.96 740.04 1106.96 744.72C1106.96 746.64 1105.32 748.04 1102.36 748.04C1099.72 748.04 1097.28 746.76 1096 745.28L1094.48 747.44C1096.44 749.48 1099.08 750.48 1102.28 750.48ZM1118.75 749.04C1118.75 747.12 1117.59 746 1116.23 746C1115.03 746 1114.11 747 1114.11 748.16C1114.11 749.32 1114.95 750.2 1116.03 750.2C1116.23 750.2 1116.51 750.16 1116.59 750.12C1116.43 751.44 1115.27 753 1113.99 753.84L1115.51 755.08C1117.35 753.76 1118.75 751.48 1118.75 749.04ZM1149.37 750V736.72C1149.37 732.04 1146.01 730.2 1141.89 730.2C1138.73 730.2 1136.25 731.24 1134.17 733.4L1135.57 735.48C1137.29 733.6 1139.17 732.8 1141.49 732.8C1144.29 732.8 1146.37 734.28 1146.37 736.84V740.32C1144.81 738.56 1142.61 737.72 1139.97 737.72C1136.69 737.72 1133.25 739.72 1133.25 744.08C1133.25 748.28 1136.73 750.48 1139.97 750.48C1142.57 750.48 1144.81 749.56 1146.37 747.8V750H1149.37ZM1141.09 748.32C1138.25 748.32 1136.29 746.56 1136.29 744.08C1136.29 741.64 1138.25 739.88 1141.09 739.88C1143.17 739.88 1145.21 740.68 1146.37 742.24V745.92C1145.21 747.52 1143.17 748.32 1141.09 748.32ZM1171.46 750V736.44C1171.46 732.24 1169.34 730.2 1165.34 730.2C1162.42 730.2 1159.78 731.84 1158.42 733.48V730.68H1155.42V750H1158.42V735.88C1159.58 734.32 1161.78 732.88 1164.14 732.88C1166.74 732.88 1168.5 733.92 1168.5 737.36V750H1171.46ZM1194.49 750V723.32H1191.49V733.6C1189.93 731.48 1187.57 730.2 1184.97 730.2C1179.93 730.2 1176.37 734.16 1176.37 740.36C1176.37 746.64 1179.93 750.48 1184.97 750.48C1187.69 750.48 1190.05 749.08 1191.49 747.12V750H1194.49ZM1185.73 747.8C1181.81 747.8 1179.49 744.64 1179.49 740.36C1179.49 736.08 1181.81 732.88 1185.73 732.88C1188.09 732.88 1190.45 734.32 1191.49 736V744.72C1190.45 746.4 1188.09 747.8 1185.73 747.8ZM1213.85 750V736.32C1214.73 734.76 1217.25 733.24 1219.13 733.24C1219.57 733.24 1219.93 733.28 1220.29 733.32V730.24C1217.65 730.24 1215.41 731.76 1213.85 733.76V730.68H1210.85V750H1213.85ZM1232.81 750.48C1235.93 750.48 1238.53 749.4 1240.49 747.48L1239.05 745.52C1237.49 747.12 1235.29 748 1233.05 748C1228.89 748 1226.37 744.96 1226.13 741.32H1241.73V740.56C1241.73 734.76 1238.29 730.2 1232.45 730.2C1226.93 730.2 1222.93 734.72 1222.93 740.32C1222.93 746.36 1227.05 750.48 1232.81 750.48ZM1238.77 739.08H1226.09C1226.25 736.16 1228.29 732.68 1232.41 732.68C1236.81 732.68 1238.73 736.24 1238.77 739.08ZM1261.67 750V736.72C1261.67 732.04 1258.31 730.2 1254.19 730.2C1251.03 730.2 1248.55 731.24 1246.47 733.4L1247.87 735.48C1249.59 733.6 1251.47 732.8 1253.79 732.8C1256.59 732.8 1258.67 734.28 1258.67 736.84V740.32C1257.11 738.56 1254.91 737.72 1252.27 737.72C1248.99 737.72 1245.55 739.72 1245.55 744.08C1245.55 748.28 1249.03 750.48 1252.27 750.48C1254.87 750.48 1257.11 749.56 1258.67 747.8V750H1261.67ZM1253.39 748.32C1250.55 748.32 1248.59 746.56 1248.59 744.08C1248.59 741.64 1250.55 739.88 1253.39 739.88C1255.47 739.88 1257.51 740.68 1258.67 742.24V745.92C1257.51 747.52 1255.47 748.32 1253.39 748.32ZM1284.72 750V723.32H1281.72V733.6C1280.16 731.48 1277.8 730.2 1275.2 730.2C1270.16 730.2 1266.6 734.16 1266.6 740.36C1266.6 746.64 1270.16 750.48 1275.2 750.48C1277.92 750.48 1280.28 749.08 1281.72 747.12V750H1284.72ZM1275.96 747.8C1272.04 747.8 1269.72 744.64 1269.72 740.36C1269.72 736.08 1272.04 732.88 1275.96 732.88C1278.32 732.88 1280.68 734.32 1281.72 736V744.72C1280.68 746.4 1278.32 747.8 1275.96 747.8ZM1292.25 727.92C1293.37 727.92 1294.25 727.04 1294.25 725.92C1294.25 724.8 1293.37 723.88 1292.25 723.88C1291.13 723.88 1290.21 724.8 1290.21 725.92C1290.21 727.04 1291.13 727.92 1292.25 727.92ZM1293.73 750V730.68H1290.73V750H1293.73ZM1315.75 750V736.44C1315.75 732.24 1313.63 730.2 1309.63 730.2C1306.71 730.2 1304.07 731.84 1302.71 733.48V730.68H1299.71V750H1302.71V735.88C1303.87 734.32 1306.07 732.88 1308.43 732.88C1311.03 732.88 1312.79 733.92 1312.79 737.36V750H1315.75ZM1329.55 757.84C1334.27 757.84 1338.79 755.84 1338.79 749.72V730.68H1335.79V733.6C1334.23 731.48 1331.87 730.2 1329.27 730.2C1324.19 730.2 1320.67 734.04 1320.67 740.24C1320.67 746.48 1324.23 750.24 1329.27 750.24C1331.99 750.24 1334.35 748.76 1335.79 746.8V749.72C1335.79 753.8 1332.75 755.36 1329.55 755.36C1326.79 755.36 1324.87 754.64 1323.27 752.76L1321.75 754.92C1324.07 757.2 1326.31 757.84 1329.55 757.84ZM1330.03 747.56C1326.11 747.56 1323.79 744.48 1323.79 740.24C1323.79 735.96 1326.11 732.88 1330.03 732.88C1332.39 732.88 1334.71 734.32 1335.79 735.96V744.44C1334.71 746.12 1332.39 747.56 1330.03 747.56ZM1350.95 750.48C1355.91 750.48 1358.51 747.88 1358.51 744.64C1358.51 737.12 1346.55 739.88 1346.55 735.68C1346.55 733.96 1348.19 732.64 1350.83 732.64C1353.35 732.64 1355.43 733.68 1356.59 735.08L1357.99 733C1356.47 731.44 1354.15 730.2 1350.83 730.2C1346.23 730.2 1343.67 732.72 1343.67 735.76C1343.67 742.92 1355.63 740.04 1355.63 744.72C1355.63 746.64 1353.99 748.04 1351.03 748.04C1348.39 748.04 1345.95 746.76 1344.67 745.28L1343.15 747.44C1345.11 749.48 1347.75 750.48 1350.95 750.48ZM1376.74 744.76V736C1377.78 734.32 1380.14 732.88 1382.54 732.88C1386.42 732.88 1388.74 736.08 1388.74 740.36C1388.74 744.64 1386.42 747.8 1382.54 747.8C1380.14 747.8 1377.78 746.44 1376.74 744.76ZM1376.74 750V747.12C1378.18 749.08 1380.54 750.48 1383.26 750.48C1388.3 750.48 1391.86 746.64 1391.86 740.36C1391.86 734.16 1388.34 730.2 1383.26 730.2C1380.66 730.2 1378.3 731.48 1376.74 733.6V723.32H1373.74V750H1376.74ZM1405.51 750.48C1408.63 750.48 1411.23 749.4 1413.19 747.48L1411.75 745.52C1410.19 747.12 1407.99 748 1405.75 748C1401.59 748 1399.07 744.96 1398.83 741.32H1414.43V740.56C1414.43 734.76 1410.99 730.2 1405.15 730.2C1399.63 730.2 1395.63 734.72 1395.63 740.32C1395.63 746.36 1399.75 750.48 1405.51 750.48ZM1411.47 739.08H1398.79C1398.95 736.16 1400.99 732.68 1405.11 732.68C1409.51 732.68 1411.43 736.24 1411.47 739.08ZM1422.29 750V723.32H1419.29V750H1422.29ZM1436.71 750.48C1442.59 750.48 1446.27 745.92 1446.27 740.32C1446.27 734.72 1442.59 730.2 1436.71 730.2C1430.83 730.2 1427.15 734.72 1427.15 740.32C1427.15 745.92 1430.83 750.48 1436.71 750.48ZM1436.71 747.8C1432.59 747.8 1430.31 744.28 1430.31 740.32C1430.31 736.4 1432.59 732.88 1436.71 732.88C1440.83 732.88 1443.11 736.4 1443.11 740.32C1443.11 744.28 1440.83 747.8 1436.71 747.8ZM1470.92 750L1477.08 730.68H1473.92L1469.2 746.08L1464.16 730.68H1461.56L1456.48 746.08L1451.76 730.68H1448.64L1454.8 750H1457.8L1462.84 734.48L1467.88 750H1470.92ZM1480.38 750.4C1481.58 750.4 1482.58 749.4 1482.58 748.2C1482.58 747 1481.58 746 1480.38 746C1479.18 746 1478.18 747 1478.18 748.2C1478.18 749.4 1479.18 750.4 1480.38 750.4Z" fill="#54595F"/>
<defs>
<filter id="filter0_d_14_62" x="1156" y="799" width="154" height="66" filterUnits="userSpaceOnUse" color-interpolation-filters="sRGB">
<feFlood flood-opacity="0" result="BackgroundImageFix"/>
<feColorMatrix in="SourceAlpha" type="matrix" values="0 0 0 0 0 0 0 0 0 0 0 0 0 0 0 0 0 0 127 0" result="hardAlpha"/>
<feOffset dy="5"/>
<feGaussianBlur stdDeviation="2"/>
<feColorMatrix type="matrix" values="0 0 0 0 0.570833 0 0 0 0 0.570833 0 0 0 0 0.570833 0 0 0 1 0"/>
<feBlend mode="normal" in2="BackgroundImageFix" result="effect1_dropShadow_14_62"/>
<feBlend mode="normal" in="SourceGraphic" in2="effect1_dropShadow_14_62" result="shape"/>
</filter>
</defs>
</svg>
